<svg id="Слой_1" xmlns="http://www.w3.org/2000/svg" viewBox="0 0 48 48"><style>.st0{fill:#2d9cdb}.st1{fill:#f2c94c}</style><switch><g id="video"><path class="st1" d="M20 16.4c.1 0 .2.1.3.1l5.6 3.2c.1.1.2.2.3.2-.1.1-.1.1-.3.2l-5.6 3.2c-.2.1-.3.1-.3.1V16.6v-.2m-.1-1.6c-.9 0-1.5.7-1.5 2v6.4c0 1.3.6 2 1.5 2 .4 0 .8-.1 1.2-.4l5.6-3.2c1.5-.9 1.5-2.3 0-3.2l-5.6-3.2c-.4-.3-.8-.4-1.2-.4z"/><path class="st0" d="M4 37.6h1.6v4.8H4zM6.4 37.6H8v4.8H6.4zM16 42.4h1.6v-1.6h23.2v-1.6H17.6v-1.6H16v1.6h-5.6v1.6H16z"/><path class="st0" d="M44 1.6H7.2C5.3 1.6 3.7 3 3.3 4.8h-.1C1.4 4.8 0 6.2 0 8v35.2c0 1.8 1.4 3.2 3.2 3.2h38.4c1.8 0 3.2-1.4 3.2-3.2v-.1c1.8-.4 3.2-2 3.2-3.9V5.6c0-2.2-1.8-4-4-4zM1.6 8c0-.9.7-1.6 1.6-1.6h38.4c.9 0 1.6.7 1.6 1.6v25.6H1.6V8zm41.6 35.2c0 .9-.7 1.6-1.6 1.6H3.2c-.9 0-1.6-.7-1.6-1.6v-8h41.6v8zm3.2-4c0 1-.7 1.9-1.6 2.3V8c0-1.8-1.4-3.2-3.2-3.2H4.9c.3-.9 1.2-1.6 2.3-1.6H44c1.3 0 2.4 1.1 2.4 2.4v33.6z"/><path class="st1" d="M22.4 11.2c4.9 0 8.8 3.9 8.8 8.8s-3.9 8.8-8.8 8.8-8.8-3.9-8.8-8.8 3.9-8.8 8.8-8.8m0-1.6C16.7 9.6 12 14.3 12 20s4.7 10.4 10.4 10.4S32.8 25.7 32.8 20 28.1 9.6 22.4 9.6z"/></g></switch></svg>