<svg width="62" height="54" viewBox="0 0 62 54" fill="none" xmlns="http://www.w3.org/2000/svg">
<path d="M50.8 19.8H50.1V19C52.5 17.5 54.1 14.8 54.1 11.8V8.7V7.7V5C54.1 2.2 51.9 0 49.1 0H37V1V3.9V7C37.8 7.5 38.5 8.2 39 9V7.8C39.8 8.4 40.8 8.7 41.9 8.7H52V11.8C52 15.4 49.1 18.3 45.5 18.3C43 18.3 40.9 16.9 39.8 14.9V18.1C40.2 18.4 40.6 18.8 41 19V19.7H40.3C40.1 19.7 40 19.7 39.8 19.7C39.8 20.4 39.7 21.1 39.5 21.7C39.8 21.7 40 21.7 40.3 21.7H41.1C41.4 23.9 43.3 25.5 45.6 25.5C47.9 25.5 49.7 23.8 50.1 21.7H50.9C55.5 21.7 59.2 25.4 59.2 30V37.2H47.4C47.7 37.8 47.9 38.5 48.1 39.2H61V30C61.1 24.4 56.4 19.8 50.8 19.8ZM41.9 6.7C40.3 6.7 39 5.4 39 3.8V2H49C50.7 2 52 3.3 52 5V6.7H41.9ZM48.1 21.1C48.1 22.5 47 23.6 45.6 23.6C44.2 23.6 43 22.5 43 21.1V20C43.8 20.2 44.6 20.4 45.5 20.4C46.4 20.4 47.2 20.3 48 20V21.1H48.1Z" fill="#2D9CDB"/>
<path d="M13.6 37.3H2V30.1C2 25.5 5.7 21.8 10.3 21.8H11.1C11.4 24 13.3 25.6 15.6 25.6C17.9 25.6 19.7 23.9 20.1 21.8H20.9C21.2 21.8 21.4 21.8 21.7 21.8C21.5 21.2 21.4 20.5 21.4 19.8C21.2 19.8 21.1 19.8 20.9 19.8H20.2V19C20.6 18.7 21 18.4 21.4 18.1V14.9C20.3 16.9 18.2 18.3 15.7 18.3C12 18.4 9 15.4 9 11.9V8.7H19.1C19.9 8.7 20.6 8.5 21.2 8.2V6.2H24V3.9V1V0H12C9.3 0 7 2.2 7 5V7.7V8.7V11.8C7 14.8 8.6 17.5 11 19V19.7H10.3C4.6 19.8 0 24.4 0 30.1V39.3H12.9C13.1 38.6 13.3 38 13.6 37.3ZM13 20C13.8 20.2 14.6 20.4 15.5 20.4C16.4 20.4 17.2 20.3 18 20V21.1C18 22.5 16.9 23.6 15.5 23.6C14.1 23.6 13 22.5 13 21.1V20ZM9 5C9 3.3 10.3 2 12 2H22V3.9C22 5.5 20.7 6.8 19.1 6.8H9V5Z" fill="#2D9CDB"/>
<path fill-rule="evenodd" clip-rule="evenodd" d="M24 31.7002C18.2466 31.7002 13.5 36.3581 13.5 42.2002V51.4002H47.5V42.2002C47.5 36.4468 42.8421 31.7002 37 31.7002H34.8V29.7002H37C43.9579 29.7002 49.5 35.3536 49.5 42.2002V53.4002H11.5V42.2002C11.5 35.2423 17.1534 29.7002 24 29.7002H26.3V31.7002H24Z" fill="#F2C94C"/>
<path fill-rule="evenodd" clip-rule="evenodd" d="M27.1001 27.5V31C27.1001 32.8477 28.6524 34.4 30.5001 34.4C32.3478 34.4 33.9001 32.8477 33.9001 31V27.5H35.9001V31C35.9001 33.9523 33.4524 36.4 30.5001 36.4C27.5478 36.4 25.1001 33.9523 25.1001 31V27.5H27.1001Z" fill="#F2C94C"/>
<path fill-rule="evenodd" clip-rule="evenodd" d="M20.2 5.2002H34.0999C37.7522 5.2002 40.7999 8.24791 40.7999 11.9002V19.7002C40.7999 25.2525 36.2522 29.9002 30.5 29.9002C24.8477 29.9002 20.2 25.2525 20.2 19.6002V5.2002ZM22.2 7.2002V19.6002C22.2 24.1479 25.9522 27.9002 30.5 27.9002C35.1477 27.9002 38.7999 24.1479 38.7999 19.7002V11.9002C38.7999 9.35248 36.6477 7.2002 34.0999 7.2002H22.2Z" fill="#F2C94C"/>
<path fill-rule="evenodd" clip-rule="evenodd" d="M22.2 6.2002V10.6002C22.2 12.2313 23.5355 13.5002 25.1 13.5002H39.7999V15.5002H25.1C22.4644 15.5002 20.2 13.3691 20.2 10.6002V6.2002H22.2Z" fill="#F2C94C"/>
</svg>
