<svg width="60" height="55" viewBox="0 0 60 55" fill="none" xmlns="http://www.w3.org/2000/svg">
<path d="M50.3 49.9998H4C1.8 49.9998 0 48.1998 0 45.9998V10.2998H54.3V45.9998C54.3 48.1998 52.5 49.9998 50.3 49.9998ZM2 12.2998V45.9998C2 47.0998 2.9 47.9998 4 47.9998H50.3C51.4 47.9998 52.3 47.0998 52.3 45.9998V12.2998H2Z" fill="#2D9CDB"/>
<path d="M55.9001 54.2998H8.7001C6.7001 54.2998 5.1001 52.6998 5.1001 50.6998V48.0998H7.1001V50.6998C7.1001 51.5998 7.8001 52.2998 8.7001 52.2998H55.8001C56.7001 52.2998 57.4001 51.5998 57.4001 50.6998V6.2998H53.3001V4.2998H59.4001V50.6998C59.5001 52.6998 57.8001 54.2998 55.9001 54.2998Z" fill="#2D9CDB"/>
<path d="M13.9999 23.3998H6.8999V16.2998H13.9999V23.3998ZM8.8999 21.3998H11.9999V18.2998H8.8999V21.3998Z" fill="#F2C94C"/>
<path d="M25.2 23.3998H18V16.2998H25.1V23.3998H25.2ZM20 21.3998H23.1V18.2998H20V21.3998Z" fill="#F2C94C"/>
<path d="M36.2999 23.3998H29.2V16.2998H36.2999V23.3998ZM31.2 21.3998H34.2999V18.2998H31.2V21.3998Z" fill="#F2C94C"/>
<path d="M47.4001 23.3998H40.3V16.2998H47.4001V23.3998ZM42.3 21.3998H45.4001V18.2998H42.3V21.3998Z" fill="#F2C94C"/>
<path d="M13.9999 33.6996H6.8999V26.5996H13.9999V33.6996ZM8.8999 31.6996H11.9999V28.5996H8.8999V31.6996Z" fill="#F2C94C"/>
<path d="M25.2 33.6996H18V26.5996H25.1V33.6996H25.2ZM20 31.6996H23.1V28.5996H20V31.6996Z" fill="#F2C94C"/>
<path d="M36.2999 33.6996H29.2V26.5996H36.2999V33.6996ZM31.2 31.6996H34.2999V28.5996H31.2V31.6996Z" fill="#F2C94C"/>
<path d="M47.4001 33.6996H40.3V26.5996H47.4001V33.6996ZM42.3 31.6996H45.4001V28.5996H42.3V31.6996Z" fill="#F2C94C"/>
<path d="M13.9999 44.0004H6.8999V36.9004H13.9999V44.0004ZM8.8999 42.0004H11.9999V38.9004H8.8999V42.0004Z" fill="#F2C94C"/>
<path d="M25.2 44.0004H18V36.9004H25.1V44.0004H25.2ZM20 42.0004H23.1V38.9004H20V42.0004Z" fill="#F2C94C"/>
<path d="M36.2999 44.0004H29.2V36.9004H36.2999V44.0004ZM31.2 42.0004H34.2999V38.9004H31.2V42.0004Z" fill="#F2C94C"/>
<path d="M54.3 12.3H0V0H8.9V4.4C8.9 5.3 9.6 6 10.5 6C11.4 6 12 5.3 12 4.4V0H42.3V4.4C42.3 5.3 43 6 43.9 6C44.8 6 45.5 5.3 45.5 4.4V0H54.4V12.3H54.3ZM2 10.3H52.3V2H47.4V4.4C47.4 6.4 45.8 8 43.8 8C41.8 8 40.2 6.4 40.2 4.4V2H14V4.4C14 6.4 12.4 8 10.4 8C8.4 8 6.8 6.4 6.8 4.4V2H2V10.3Z" fill="#2D9CDB"/>
</svg>
