<svg width="64" height="59" viewBox="0 0 64 59" fill="none" xmlns="http://www.w3.org/2000/svg">
<path d="M32 42.9002C24.3 42.9002 16.6 40.5002 11.8 35.7002L11.5 35.4002V22.2002H13.5V34.6002C22.3 43.0002 41.7 43.0002 50.5 34.6002V22.2002H52.5V35.4002L52.2 35.7002C47.4 40.5002 39.7 42.9002 32 42.9002Z" fill="#2D9CDB"/>
<path d="M32 33.5004C31.8 33.5004 31.7 33.5004 31.5 33.4004L0.5 17.6004C0.2 17.5004 0 17.1004 0 16.8004C0 16.5004 0.2 16.1004 0.5 15.9004L31.5 0.100391C31.8 0.000390626 32.1 0.000390626 32.4 0.100391L63.4 15.9004C63.7 16.1004 63.9 16.4004 63.9 16.8004C63.9 17.2004 63.7 17.5004 63.4 17.7004L32.4 33.5004C32.3 33.5004 32.2 33.5004 32 33.5004ZM3.2 16.8004L32 31.4004L60.8 16.8004L32 2.10039L3.2 16.8004Z" fill="#2D9CDB"/>
<path d="M16.1001 43.3009C16.0001 43.3009 16.0001 43.3009 16.1001 43.3009C15.5001 43.3009 15.1001 42.8009 15.1001 42.3009L15.3001 23.9009L31.8001 15.9009C32.3001 15.7009 32.9001 15.9009 33.1001 16.4009C33.3001 16.9009 33.1001 17.5009 32.6001 17.7009L17.2001 25.2009L17.0001 42.3009C17.0001 42.8009 16.6001 43.3009 16.1001 43.3009Z" fill="#F2C94C"/>
<path d="M18.9 58.1004H13.2C12.6 58.1004 12.2 57.7004 12.2 57.1004V50.2004C12.2 49.9004 12.3 49.6004 12.6 49.4004L15.5 47.0004C15.9 46.7004 16.4 46.7004 16.8 47.0004L19.6 49.4004C19.8 49.6004 19.9 49.9004 19.9 50.2004V57.1004C19.9 57.7004 19.5 58.1004 18.9 58.1004ZM14.2 56.1004H17.9V50.7004L16.1 49.1004L14.2 50.7004V56.1004Z" fill="#F2C94C"/>
<path d="M16.1 48.8002C14.3 48.8002 12.8 47.3002 12.8 45.5002C12.8 43.7002 14.3 42.2002 16.1 42.2002C17.9 42.2002 19.4 43.7002 19.4 45.5002C19.4 47.3002 17.9 48.8002 16.1 48.8002ZM16.1 44.3002C15.4 44.3002 14.8 44.9002 14.8 45.6002C14.8 46.3002 15.4 46.9002 16.1 46.9002C16.8 46.9002 17.4 46.3002 17.4 45.6002C17.4 44.9002 16.8 44.3002 16.1 44.3002Z" fill="#F2C94C"/>
</svg>
