<svg width="32" height="30" viewBox="0 0 32 30" fill="none" xmlns="http://www.w3.org/2000/svg">
<path fill-rule="evenodd" clip-rule="evenodd" d="M27.5 3.1H2.5C1.7268 3.1 1.1 3.7268 1.1 4.5V27.5C1.1 28.2715 1.72804 28.9 2.50291 28.9H27.4971C28.272 28.9 28.9 28.2715 28.9 27.5V4.5C28.9 3.7268 28.2732 3.1 27.5 3.1ZM2.5 2C1.11929 2 0 3.11929 0 4.5V27.5C0 28.8807 1.1222 30 2.50291 30H27.4971C28.8778 30 30 28.8807 30 27.5V4.5C30 3.11929 28.8807 2 27.5 2H2.5Z" fill="#2D9CDB"/>
<path d="M1 6H30V7H1V6Z" fill="#2D9CDB"/>
<path fill-rule="evenodd" clip-rule="evenodd" d="M4.50011 1.1H29.5001C30.2733 1.1 30.9001 1.7268 30.9001 2.5V25.5C30.9001 26.097 30.5264 26.6068 30.0001 26.8081V27.5C30.0001 27.6565 29.9857 27.8096 29.9581 27.9581C31.1201 27.743 32.0001 26.7243 32.0001 25.5V2.5C32.0001 1.11929 30.8808 0 29.5001 0H4.50011C3.27588 0 2.25717 0.87996 2.04199 2.04188C2.19051 2.01438 2.34363 2 2.50011 2H3.19204C3.39332 1.47373 3.90307 1.1 4.50011 1.1Z" fill="#2D9CDB"/>
<path d="M2.53222 4C2.26611 4 2 4.26611 2 4.53222C2 4.79834 2.26611 5.06445 2.53222 5.06445C2.79834 5.06445 3.06445 4.79834 3.06445 4.53222C3.06445 4.26611 2.79834 4 2.53222 4ZM4.1289 4C3.86279 4 3.59667 4.26611 3.59667 4.53222C3.59667 4.79834 3.86279 5.06445 4.1289 5.06445C4.39501 5.06445 4.66112 4.79834 4.66112 4.53222C4.66112 4.26611 4.39501 4 4.1289 4ZM5.72557 4C5.45946 4 5.19335 4.26611 5.19335 4.53222C5.19335 4.79834 5.45946 5.06445 5.72557 5.06445C5.99168 5.06445 6.2578 4.79834 6.2578 4.53222C6.2578 4.26611 5.99168 4 5.72557 4ZM2 17.8378H3.06445V18.9023H2V17.8378ZM2 15.7089H3.06445V16.7734H2V15.7089ZM2 13.58H3.06445V14.6445H2V13.58ZM2 11.4511H3.06445V12.5156H2V11.4511ZM2 9.32225H3.06445V10.3867H2V9.32225Z" fill="#2D9CDB"/>
<path d="M4 7H5V27H4V7Z" fill="#2D9CDB"/>
<path d="M1 6H30V7H1V6Z" fill="#2D9CDB"/>
<path d="M2.53222 4C2.26611 4 2 4.26611 2 4.53222C2 4.79834 2.26611 5.06445 2.53222 5.06445C2.79834 5.06445 3.06445 4.79834 3.06445 4.53222C3.06445 4.26611 2.79834 4 2.53222 4ZM4.1289 4C3.86279 4 3.59667 4.26611 3.59667 4.53222C3.59667 4.79834 3.86279 5.06445 4.1289 5.06445C4.39501 5.06445 4.66112 4.79834 4.66112 4.53222C4.66112 4.26611 4.39501 4 4.1289 4ZM5.72557 4C5.45946 4 5.19335 4.26611 5.19335 4.53222C5.19335 4.79834 5.45946 5.06445 5.72557 5.06445C5.99168 5.06445 6.2578 4.79834 6.2578 4.53222C6.2578 4.26611 5.99168 4 5.72557 4ZM2 17.8378H3.06445V18.9023H2V17.8378ZM2 15.7089H3.06445V16.7734H2V15.7089ZM2 13.58H3.06445V14.6445H2V13.58ZM2 11.4511H3.06445V12.5156H2V11.4511ZM2 9.32225H3.06445V10.3867H2V9.32225Z" fill="#2D9CDB"/>
<path d="M4 7H5V29H4V7Z" fill="#2D9CDB"/>
<path fill-rule="evenodd" clip-rule="evenodd" d="M20.0701 14.8883C19.8613 15.105 19.8946 15.4245 20.1446 15.602L24.2234 18.4981L20.133 21.4199C19.8812 21.5998 19.8447 21.9196 20.0514 22.1343C20.258 22.3491 20.6297 22.3774 20.8814 22.1975L25.5222 18.8826C25.658 18.7856 25.737 18.642 25.7378 18.491C25.7385 18.3399 25.6609 18.1971 25.5261 18.1014L20.9008 14.8174C20.6509 14.6399 20.279 14.6717 20.0701 14.8883Z" fill="#F2C94C"/>
<path fill-rule="evenodd" clip-rule="evenodd" d="M14.0778 14.8883C14.2867 15.105 14.2533 15.4245 14.0034 15.602L9.92453 18.4981L14.015 21.4199C14.2667 21.5998 14.3033 21.9196 14.0966 22.1343C13.8899 22.3491 13.5183 22.3774 13.2665 22.1975L8.62571 18.8826C8.48995 18.7856 8.41094 18.642 8.41018 18.491C8.40943 18.3399 8.48701 18.1971 8.62181 18.1014L13.2471 14.8174C13.4971 14.6399 13.869 14.6717 14.0778 14.8883Z" fill="#F2C94C"/>
<path fill-rule="evenodd" clip-rule="evenodd" d="M19.3739 12.4781C19.6621 12.5741 19.8178 12.8856 19.7218 13.1738L16.0556 24.1738C15.9596 24.462 15.6481 24.6177 15.3599 24.5217C15.0718 24.4256 14.916 24.1142 15.012 23.826L18.6782 12.826C18.7743 12.5378 19.0857 12.3821 19.3739 12.4781Z" fill="#F2C94C"/>
</svg>
