<svg width="32" height="32" viewBox="0 0 32 32" fill="none" xmlns="http://www.w3.org/2000/svg">
<path d="M15.9666 22.3533C16.2605 22.3533 16.4988 22.115 16.4988 21.821C16.4988 21.5271 16.2605 21.2888 15.9666 21.2888C15.6726 21.2888 15.4343 21.5271 15.4343 21.821C15.4343 22.115 15.6726 22.3533 15.9666 22.3533Z" fill="#2D9CDB"/>
<path d="M7.45117 7.45093H11.1767V8.51538H7.45117V7.45093Z" fill="#2D9CDB"/>
<path d="M12.2412 7.45093H20.2246V8.51538H12.2412V7.45093ZM21.289 7.45093H28.7402V8.51538H21.289V7.45093ZM9.58008 11.7087H13.3056V12.7732H9.58008V11.7087Z" fill="#F2C94C"/>
<path d="M14.3701 11.709H22.3535V12.7734H14.3701V11.709ZM23.4179 11.709H27.1435V12.7734H23.4179V11.709ZM24.4824 13.8379H28.7402V14.9023H24.4824V13.8379Z" fill="#2D9CDB"/>
<path d="M7.45117 15.9668H11.1767V17.0312H7.45117V15.9668Z" fill="#F2C94C"/>
<path d="M12.2412 15.9668H20.2246V17.0312H12.2412V15.9668Z" fill="#2D9CDB"/>
<path d="M21.2888 15.9668H27.1433V17.0312H21.2888V15.9668Z" fill="#F2C94C"/>
<path d="M7.45117 9.57983H14.9023V10.6443H7.45117V9.57983Z" fill="#2D9CDB"/>
<path d="M15.9668 9.57983H25.0146V10.6443H15.9668V9.57983Z" fill="#F2C94C"/>
<path d="M9.58008 13.8379H17.0312V14.9023H9.58008V13.8379Z" fill="#2D9CDB"/>
<path d="M18.0955 13.8379H23.4177V14.9023H18.0955V13.8379Z" fill="#F2C94C"/>
<path d="M29.8046 2.31819e-07H2.1289C0.931393 2.31819e-07 0 0.931393 0 2.1289V22.3534C0 23.5509 0.931393 24.4823 2.1289 24.4823H11.9085L10.9771 27.6757H9.97921C9.44988 27.6757 8.94223 27.886 8.56794 28.2602C8.19364 28.6345 7.98337 29.1422 7.98337 29.6715V31.3347H23.9501V29.6715C23.9501 29.1422 23.7398 28.6345 23.3655 28.2602C22.9912 27.886 22.4836 27.6757 21.9543 27.6757H21.0229L20.0915 24.4823H29.8711C31.0686 24.4823 32 23.5509 32 22.3534V2.1289C31.9827 1.55824 31.7438 1.01677 31.3339 0.619329C30.9241 0.221887 30.3755 -0.000261956 29.8046 2.31819e-07ZM1.06445 5.32225H4.2578V19.1601H1.06445V5.32225ZM21.9543 28.7401C22.4865 28.7401 22.9522 29.2058 22.9522 29.738V30.4033H9.04782V29.738C9.04782 29.2058 9.51351 28.7401 10.0457 28.7401H21.9543ZM19.8919 27.6757H12.0416L12.973 24.4823H18.894L19.8919 27.6757ZM30.869 22.3534C30.869 22.9522 30.4033 23.4179 29.8046 23.4179H2.1289C1.53015 23.4179 1.06445 22.9522 1.06445 22.3534V20.2245H30.869V22.3534ZM30.869 19.1601H5.32225V5.32225H30.869V19.1601ZM1.06445 4.2578V2.1289C1.06445 1.53015 1.53015 1.06445 2.1289 1.06445H29.8046C30.4033 1.06445 30.869 1.53015 30.869 2.1289V4.2578H1.06445Z" fill="#2D9CDB"/>
<path d="M2.66113 2.12891C2.39502 2.12891 2.12891 2.39502 2.12891 2.66113C2.12891 2.92724 2.39502 3.19336 2.66113 3.19336C2.92724 3.19336 3.19336 2.92724 3.19336 2.66113C3.19336 2.39502 2.92724 2.12891 2.66113 2.12891ZM4.2578 2.12891C3.99169 2.12891 3.72558 2.39502 3.72558 2.66113C3.72558 2.92724 3.99169 3.19336 4.2578 3.19336C4.52392 3.19336 4.79003 2.92724 4.79003 2.66113C4.79003 2.39502 4.52392 2.12891 4.2578 2.12891ZM5.85448 2.12891C5.58837 2.12891 5.32225 2.39502 5.32225 2.66113C5.32225 2.92724 5.58837 3.19336 5.85448 3.19336C6.12059 3.19336 6.3867 2.92724 6.3867 2.66113C6.3867 2.39502 6.12059 2.12891 5.85448 2.12891ZM2.12891 15.9667H3.19336V17.0312H2.12891V15.9667ZM2.12891 13.8378H3.19336V14.9023H2.12891V13.8378ZM2.12891 11.7089H3.19336V12.7734H2.12891V11.7089ZM2.12891 9.58005H3.19336V10.6445H2.12891V9.58005ZM2.12891 7.45115H3.19336V8.5156H2.12891V7.45115Z" fill="#2D9CDB"/>
</svg>
