<svg width="32" height="32" viewBox="0 0 32 32" fill="none" xmlns="http://www.w3.org/2000/svg">
<path fill-rule="evenodd" clip-rule="evenodd" d="M23.3643 12.043L24.5086 11.3181L25.0083 12.5772L26.3206 12.2414L26.4068 13.5932L27.7586 13.6794L27.4228 14.9917L28.6819 15.4914L27.957 16.6357L29 17.5L27.957 18.3643L28.6819 19.5086L27.4228 20.0083L27.7586 21.3206L26.4068 21.4068L26.3206 22.7586L25.0083 22.4228L24.5086 23.6819L23.3643 22.957L22.5 24L21.6357 22.957L20.4914 23.6819L19.9917 22.4228L18.6794 22.7586L18.5932 21.4068L17.2414 21.3206L17.5772 20.0083L16.3181 19.5086L17.043 18.3643L16 17.5L17.043 16.6357L16.3181 15.4914L17.5772 14.9917L17.2414 13.6794L18.5932 13.5932L18.6794 12.2414L19.9917 12.5772L20.4914 11.3181L21.6357 12.043L22.5 11L23.3643 12.043ZM22.5 12.724L21.8649 13.4904L21.0241 12.9577L20.657 13.8829L19.6927 13.6361L19.6294 14.6294L18.6361 14.6927L18.8829 15.657L17.9577 16.0241L18.4904 16.8649L17.724 17.5L18.4904 18.1351L17.9577 18.9759L18.8829 19.343L18.6361 20.3073L19.6294 20.3706L19.6927 21.3639L20.657 21.1171L21.0241 22.0423L21.8649 21.5096L22.5 22.276L23.1351 21.5096L23.9759 22.0423L24.343 21.1171L25.3073 21.3639L25.3706 20.3706L26.3639 20.3073L26.1171 19.343L27.0423 18.9759L26.5096 18.1351L27.276 17.5L26.5096 16.8649L27.0423 16.0241L26.1171 15.657L26.3639 14.6927L25.3706 14.6294L25.3073 13.6361L24.343 13.8829L23.9759 12.9577L23.1351 13.4904L22.5 12.724Z" fill="#F2C94C"/>
<path fill-rule="evenodd" clip-rule="evenodd" d="M18.0526 21.3719L16.2307 25.279L15.5733 26.6889L17.0351 26.1568L17.1975 26.0977L18.2311 25.7215L18.6073 26.7551L18.6664 26.9175L19.1985 28.3793L19.8559 26.9694L21.6943 23.027L21.636 22.9566L20.4916 23.6815L20.3462 23.3152L19.3239 25.5076L19.2648 25.3452L18.8886 24.3116L17.8549 24.6878L17.6925 24.7469L18.6725 22.6454L18.5935 21.4064L18.0526 21.3719ZM23.4747 23.0264L25.3472 27.042L26.0046 28.4518L26.5367 26.99L26.5958 26.8277L26.972 25.794L28.0056 26.1702L28.168 26.2293L29.6298 26.7614L28.9724 25.3515L27.1118 21.3615L26.407 21.4064L26.3483 22.327L27.5106 24.8194L27.3482 24.7603L26.3145 24.3841L25.9383 25.4178L25.8792 25.5801L24.7319 23.1196L24.5089 23.6815L23.4747 23.0264Z" fill="#F2C94C"/>
<path d="M3 5H29V6.1H3V5Z" fill="#2D9CDB"/>
<path d="M3 8H29V9.1H3V8Z" fill="#2D9CDB"/>
<path d="M3 11H14V12.1H3V11Z" fill="#2D9CDB"/>
<path d="M3 14H14V15.1H3V14Z" fill="#2D9CDB"/>
<path d="M3 17H14V18.1H3V17Z" fill="#2D9CDB"/>
<path fill-rule="evenodd" clip-rule="evenodd" d="M2 1.1H30C30.4971 1.1 30.9 1.50294 30.9 2V23C30.9 23.4971 30.4971 23.9 30 23.9V25C31.1046 25 32 24.1046 32 23V2C32 0.895431 31.1046 0 30 0H2C0.895431 0 0 0.89543 0 2V23C0 24.1046 0.895431 25 2 25H15V23.9H2C1.50294 23.9 1.1 23.4971 1.1 23V2C1.1 1.50294 1.50294 1.1 2 1.1Z" fill="#2D9CDB"/>
</svg>
