<svg width="32" height="31" viewBox="0 0 32 31" fill="none" xmlns="http://www.w3.org/2000/svg">
<path d="M29.8667 3.2H14.6667L14.1333 1.26667C13.9333 0.533333 13.2 0 12.3333 0H4.73333C3.86667 0 3.13333 0.533333 2.93333 1.26667L2.4 3.2H2.13333C0.933333 3.2 0 4.13333 0 5.33333V28.8C0 30 0.933333 30.9333 2.13333 30.9333H29.8667C31.0667 30.9333 32 30 32 28.8V5.33333C32 4.13333 31.0667 3.2 29.8667 3.2ZM4 1.6C4.06667 1.33333 4.4 1.06667 4.8 1.06667H12.3333C12.7333 1.06667 13 1.26667 13.1333 1.6L13.6 3.2H3.6L4 1.6ZM30.9333 28.8C30.9333 29.4 30.4667 29.8667 29.8667 29.8667H2.13333C1.53333 29.8667 1.06667 29.4 1.06667 28.8V10.6667H30.9333V28.8ZM30.9333 9.6H1.06667V7.46667H30.9333V9.6ZM1.06667 6.4V5.33333C1.06667 4.73333 1.53333 4.26667 2.13333 4.26667H29.8667C30.4667 4.26667 30.9333 4.73333 30.9333 5.33333V6.4H1.06667Z" fill="#2D9CDB"/>
<path d="M18.2001 19.5334C19.1334 18.8667 19.7334 17.7334 19.7334 16.5334C19.7334 14.4667 18.0668 12.8 16.0001 12.8C13.9334 12.8 12.2668 14.4667 12.2668 16.5334C12.2668 17.7334 12.8668 18.8667 13.8001 19.5334C10.7334 20.4667 8.53345 23.3334 8.53345 26.6667V27.7334H23.4668V26.6667C23.4668 23.3334 21.2668 20.4667 18.2001 19.5334ZM13.3334 16.5334C13.3334 15.0667 14.5334 13.8667 16.0001 13.8667C17.4668 13.8667 18.6668 15.0667 18.6668 16.5334C18.6668 18 17.4668 19.2 16.0001 19.2C14.5334 19.2 13.3334 18 13.3334 16.5334ZM16.0001 20.2667C18.8001 20.2667 21.1334 22.0667 22.0001 24.5334H10.0001C10.8668 22.0667 13.2001 20.2667 16.0001 20.2667ZM9.60011 26.6667C9.60011 26.3334 9.66678 25.9334 9.66678 25.6H22.2668C22.3334 25.9334 22.3334 26.3334 22.3334 26.6667H9.60011Z" fill="#F2C94C"/>
</svg>
