<svg width="30" height="32" viewBox="0 0 30 32" fill="none" xmlns="http://www.w3.org/2000/svg">
<path d="M14.5822 25.5191C15.0548 25.5191 15.3923 25.8567 15.3923 26.3293C15.3923 26.8018 15.0548 27.1394 14.5822 27.1394C14.1096 27.1394 13.7721 26.8018 13.7721 26.3293C13.7721 25.8567 14.1096 25.5191 14.5822 25.5191ZM14.5822 24.439C13.5695 24.439 12.6919 25.3166 12.6919 26.3293C12.6919 27.3419 13.5695 28.2195 14.5822 28.2195C15.5948 28.2195 16.4725 27.3419 16.4725 26.3293C16.4725 25.3166 15.5948 24.439 14.5822 24.439Z" fill="#F2C94C"/>
<path d="M11.3418 8.77637H14.0422V9.85653H11.3418V8.77637ZM15.1224 8.77637H17.8228V9.85653H15.1224V8.77637Z" fill="#2D9CDB"/>
<path d="M27.0042 28.7594V23.0886C27.0042 19.0379 23.7637 15.7974 19.713 15.7974H18.3628V14.7848C18.7125 14.4495 19.0085 14.0624 19.2405 13.6371H19.9831C20.8607 13.6371 21.6033 12.8945 21.6033 12.0169V11.4093C22.2109 11.2067 22.6835 10.5991 22.6835 9.85652V8.77635C22.6835 8.30378 22.481 7.89872 22.1434 7.56117C22.1434 5.55582 21.3468 3.63261 19.9288 2.21461C18.5108 0.796621 16.5876 0 14.5822 0C12.5769 0 10.6537 0.796621 9.2357 2.21461C7.8177 3.63261 7.02108 5.55582 7.02108 7.56117C6.68353 7.83121 6.481 8.30378 6.481 8.77635V9.85652C6.481 10.7342 7.22361 11.4768 8.10125 11.4768H9.18142C9.31644 12.7595 9.92403 13.9071 10.8017 14.7848V15.7974H9.45146C5.40083 15.7974 2.16033 19.0379 2.16033 23.0886V28.7594H0V29.8396H5.94092V28.7594H3.2405V23.0886C3.2405 19.6455 6.00843 16.8776 9.45146 16.8776H10.2616C11.2742 18.1603 12.827 19.0379 14.5822 19.0379C16.3375 19.0379 17.8903 18.1603 18.9029 16.8776H19.713C23.1561 16.8776 25.924 19.6455 25.924 23.0886V28.7594H23.2236V29.8396H29.1645V28.7594H27.0042ZM20.5232 12.0169C20.5232 12.2869 20.2531 12.5569 19.9831 12.5569H19.713C19.8481 12.2194 19.9156 11.8818 19.9156 11.4768H20.4557V12.0169H20.5232ZM21.6033 8.77635V9.85652C21.6033 10.1266 21.3333 10.3966 21.0632 10.3966H19.9831V8.23627H21.0632C21.3333 8.23627 21.6033 8.50631 21.6033 8.77635ZM9.18142 10.3966H8.10125C7.83121 10.3966 7.56117 10.1266 7.56117 9.85652V8.77635C7.56117 8.50631 7.83121 8.23627 8.10125 8.23627H9.18142V10.3966ZM8.10125 7.1561C8.37129 3.84809 11.2067 1.21519 14.5822 1.21519C17.9578 1.21519 20.7932 3.84809 21.0632 7.1561H19.9831C19.8659 5.80446 19.2462 4.54587 18.2463 3.62889C17.2464 2.7119 15.939 2.20318 14.5822 2.20318C13.2255 2.20318 11.9181 2.7119 10.9182 3.62889C9.91831 4.54587 9.29858 5.80446 9.18142 7.1561H8.10125ZM18.4979 5.94092C18.2953 6.00843 18.0253 6.00843 17.8227 6.00843C16.8776 6.00843 16 5.67087 15.3249 5.06328L14.3122 4.18565L13.6371 5.33332C13.3048 5.89517 12.8303 6.35951 12.2614 6.67952C11.6925 6.99953 11.0493 7.16392 10.3966 7.1561H10.2616C10.5316 5.06328 12.3544 3.37552 14.5147 3.37552C16.3375 3.37552 17.8903 4.45569 18.4979 5.94092ZM14.5822 17.9578C13.5021 17.9578 12.4894 17.5527 11.7468 16.8776L11.8818 15.5949C12.6967 16.0868 13.6304 16.3468 14.5822 16.3468C15.5341 16.3468 16.4678 16.0868 17.2827 15.5949L17.4177 16.8776C16.6751 17.5527 15.6624 17.9578 14.5822 17.9578ZM14.5822 15.2574C12.2194 15.2574 10.2616 13.2996 10.2616 10.9367V8.23627H10.4641C12.2194 8.23627 13.7721 7.29112 14.6498 5.87341C15.5274 6.61602 16.6076 7.08859 17.8903 7.08859C18.2278 7.08859 18.5654 7.02108 18.9029 6.95357C18.9704 7.1561 18.9704 7.42615 18.9704 7.62868V10.8692C18.9704 11.4093 18.8354 12.0169 18.6329 12.4894H14.1097V13.5696H17.9578C17.1476 14.6498 15.9325 15.2574 14.5822 15.2574Z" fill="#2D9CDB"/>
<path d="M21.6034 21.7384C22.211 21.7384 22.6835 22.2109 22.6835 22.8185V30.9198H6.48105V22.8185C6.48105 22.2109 6.95362 21.7384 7.56121 21.7384H21.6034ZM21.6034 20.6582H7.56121C6.34603 20.6582 5.40088 21.6033 5.40088 22.8185V32H23.7637V22.8185C23.7637 21.6033 22.8186 20.6582 21.6034 20.6582Z" fill="#F2C94C"/>
</svg>
