<svg width="32" height="30" viewBox="0 0 32 30" fill="none" xmlns="http://www.w3.org/2000/svg">
<path d="M13.3333 9.86672C13.3999 9.86672 13.4666 9.93338 13.5333 9.93338L17.2666 12.0667C17.3333 12.1334 17.3999 12.2 17.4666 12.2C17.3999 12.2667 17.3999 12.2667 17.2666 12.3334L13.5333 14.4667C13.3999 14.5334 13.3333 14.5334 13.3333 14.5334V10V9.86672ZM13.2666 8.80005C12.6666 8.80005 12.2666 9.26671 12.2666 10.1334V14.4C12.2666 15.2667 12.6666 15.7334 13.2666 15.7334C13.5333 15.7334 13.7999 15.6667 14.0666 15.4667L17.7999 13.3334C18.7999 12.7334 18.7999 11.8 17.7999 11.2L14.0666 9.06672C13.7999 8.86672 13.5333 8.80005 13.2666 8.80005Z" fill="#F2C94C"/>
<path d="M2.6665 24H3.73317V27.2H2.6665V24ZM4.2665 24H5.33317V27.2H4.2665V24ZM10.6665 27.2H11.7332V26.1333H27.1998V25.0667H11.7332V24H10.6665V25.0667H6.93317V26.1333H10.6665V27.2Z" fill="#2D9CDB"/>
<path d="M29.3333 0H4.8C3.53333 0 2.46667 0.933334 2.2 2.13333H2.13333C0.933333 2.13333 0 3.06667 0 4.26667V27.7333C0 28.9333 0.933333 29.8667 2.13333 29.8667H27.7333C28.9333 29.8667 29.8667 28.9333 29.8667 27.7333V27.6667C31.0667 27.4 32 26.3333 32 25.0667V2.66667C32 1.2 30.8 0 29.3333 0ZM1.06667 4.26667C1.06667 3.66667 1.53333 3.2 2.13333 3.2H27.7333C28.3333 3.2 28.8 3.66667 28.8 4.26667V21.3333H1.06667V4.26667ZM28.8 27.7333C28.8 28.3333 28.3333 28.8 27.7333 28.8H2.13333C1.53333 28.8 1.06667 28.3333 1.06667 27.7333V22.4H28.8V27.7333ZM30.9333 25.0667C30.9333 25.7333 30.4667 26.3333 29.8667 26.6V4.26667C29.8667 3.06667 28.9333 2.13333 27.7333 2.13333H3.26667C3.46667 1.53333 4.06667 1.06667 4.8 1.06667H29.3333C30.2 1.06667 30.9333 1.8 30.9333 2.66667V25.0667Z" fill="#2D9CDB"/>
<path d="M14.9333 6.40016C18.2 6.40016 20.8 9.00016 20.8 12.2668C20.8 15.5335 18.2 18.1335 14.9333 18.1335C11.6667 18.1335 9.06667 15.5335 9.06667 12.2668C9.06667 9.00016 11.6667 6.40016 14.9333 6.40016ZM14.9333 5.3335C11.1333 5.3335 8 8.46683 8 12.2668C8 16.0668 11.1333 19.2002 14.9333 19.2002C18.7333 19.2002 21.8667 16.0668 21.8667 12.2668C21.8667 8.46683 18.7333 5.3335 14.9333 5.3335Z" fill="#F2C94C"/>
</svg>
