<svg width="60" height="84" viewBox="0 0 60 84" fill="none" xmlns="http://www.w3.org/2000/svg">
<path d="M60 30.169C60 46.8309 30 84 30 84C30 84 0 46.8309 0 30.169C0 13.5071 13.4315 0 30 0C46.5685 0 60 13.5071 60 30.169Z" fill="#F2C94C"/>
<path d="M30.4778 15.3809C22.7126 15.3809 23.1975 18.785 23.1975 18.785L23.2062 22.3117H30.6163V23.3706H20.2629C20.2629 23.3706 15.2939 22.8009 15.2939 30.7214C15.2939 38.642 19.631 38.3611 19.631 38.3611H22.2193V34.6857C22.2193 34.6857 22.0798 30.3014 26.4871 30.3014C30.8943 30.3014 33.8366 30.3014 33.8366 30.3014C33.8366 30.3014 37.9658 30.3689 37.9658 26.2672C37.9658 22.1654 37.9658 19.4851 37.9658 19.4851C37.9658 19.4851 38.5928 15.3809 30.4778 15.3809ZM26.3918 17.7524C27.1291 17.7524 27.725 18.3548 27.725 19.1001C27.725 19.8453 27.1291 20.4477 26.3918 20.4477C25.6546 20.4477 25.0587 19.8453 25.0587 19.1001C25.0587 18.3548 25.6546 17.7524 26.3918 17.7524Z" fill="white"/>
<path d="M30.6985 46.1426C38.4637 46.1426 37.9788 42.7384 37.9788 42.7384L37.9701 39.2118H30.56V38.1529H40.9134C40.9134 38.1529 45.8823 38.7226 45.8823 30.802C45.8823 22.8815 41.5453 23.1624 41.5453 23.1624H38.957V26.8378C38.957 26.8378 39.0965 31.2221 34.6892 31.2221C30.282 31.2221 27.3397 31.2221 27.3397 31.2221C27.3397 31.2221 23.2104 31.1546 23.2104 35.2563C23.2104 39.358 23.2104 42.0384 23.2104 42.0384C23.2104 42.0384 22.5835 46.1426 30.6985 46.1426ZM34.7845 43.7711C34.0472 43.7711 33.4513 43.1687 33.4513 42.4234C33.4513 41.6781 34.0472 41.0757 34.7845 41.0757C35.5217 41.0757 36.1176 41.6781 36.1176 42.4234C36.1176 43.1687 35.5217 43.7711 34.7845 43.7711Z" fill="white"/>
</svg>
