<svg width="280" height="122" viewBox="0 0 280 122" fill="none" xmlns="http://www.w3.org/2000/svg">
<g filter="url(#filter0_d)">
<path d="M10 8C10 6.34315 11.3431 5 13 5H267C268.657 5 270 6.34315 270 8V94C270 95.6569 268.644 97 266.987 97C221.6 97 195.24 97 149 97L139 107L130 97H13C11.3431 97 10 95.6569 10 94V8Z" fill="white"/>
<path d="M149 96H148.586L148.293 96.2929L139.038 105.548L130.743 96.331L130.445 96H130H13C11.8954 96 11 95.1046 11 94V8C11 6.89543 11.8954 6 13 6H267C268.105 6 269 6.89543 269 8V94C269 95.0991 268.097 96 266.987 96H266.722H266.456H266.191H265.927H265.663H265.4H265.136H264.874H264.611H264.349H264.088H263.827H263.566H263.306H263.046H262.787H262.528H262.269H262.011H261.753H261.496H261.239H260.982H260.726H260.47H260.215H259.96H259.705H259.451H259.197H258.944H258.691H258.438H258.186H257.934H257.682H257.431H257.18H256.93H256.68H256.43H256.181H255.932H255.683H255.435H255.187H254.939H254.692H254.445H254.199H253.952H253.707H253.461H253.216H252.971H252.727H252.483H252.239H251.995H251.752H251.509H251.267H251.025H250.783H250.542H250.301H250.06H249.819H249.579H249.339H249.1H248.86H248.621H248.383H248.144H247.906H247.669H247.431H247.194H246.957H246.721H246.485H246.249H246.013H245.778H245.543H245.308H245.073H244.839H244.605H244.372H244.138H243.905H243.672H243.44H243.207H242.975H242.744H242.512H242.281H242.05H241.819H241.589H241.359H241.129H240.899H240.67H240.44H240.212H239.983H239.754H239.526H239.298H239.071H238.843H238.616H238.389H238.162H237.936H237.709H237.483H237.257H237.032H236.806H236.581H236.356H236.131H235.907H235.682H235.458H235.234H235.011H234.787H234.564H234.341H234.118H233.895H233.673H233.45H233.228H233.006H232.785H232.563H232.342H232.12H231.899H231.679H231.458H231.238H231.017H230.797H230.577H230.358H230.138H229.919H229.699H229.48H229.261H229.043H228.824H228.605H228.387H228.169H227.951H227.733H227.516H227.298H227.081H226.863H226.646H226.429H226.212H225.996H225.779H225.563H225.346H225.13H224.914H224.698H224.483H224.267H224.051H223.836H223.621H223.405H223.19H222.975H222.76H222.546H222.331H222.117H221.902H221.688H221.474H221.259H221.045H220.831H220.618H220.404H220.19H219.977H219.763H219.55H219.336H219.123H218.91H218.697H218.484H218.271H218.058H217.845H217.632H217.42H217.207H216.995H216.782H216.57H216.357H216.145H215.933H215.721H215.508H215.296H215.084H214.872H214.66H214.448H214.237H214.025H213.813H213.601H213.389H213.178H212.966H212.754H212.543H212.331H212.12H211.908H211.697H211.485H211.274H211.062H210.851H210.639H210.428H210.216H210.005H209.793H209.582H209.371H209.159H208.948H208.736H208.525H208.314H208.102H207.891H207.679H207.468H207.256H207.045H206.833H206.621H206.41H206.198H205.987H205.775H205.563H205.351H205.14H204.928H204.716H204.504H204.292H204.08H203.868H203.656H203.444H203.232H203.02H202.807H202.595H202.383H202.17H201.958H201.745H201.533H201.32H201.107H200.894H200.682H200.469H200.256H200.042H199.829H199.616H199.403H199.189H198.976H198.762H198.548H198.335H198.121H197.907H197.693H197.479H197.264H197.05H196.835H196.621H196.406H196.191H195.977H195.762H195.546H195.331H195.116H194.9H194.685H194.469H194.253H194.037H193.821H193.605H193.389H193.172H192.956H192.739H192.522H192.305H192.088H191.871H191.653H191.436H191.218H191H190.782H190.564H190.346H190.127H189.909H189.69H189.471H189.252H189.032H188.813H188.593H188.374H188.154H187.933H187.713H187.493H187.272H187.051H186.83H186.609H186.387H186.166H185.944H185.722H185.5H185.278H185.055H184.832H184.609H184.386H184.163H183.939H183.716H183.492H183.268H183.043H182.819H182.594H182.369H182.143H181.918H181.692H181.466H181.24H181.014H180.787H180.56H180.333H180.106H179.879H179.651H179.423H179.194H178.966H178.737H178.508H178.279H178.05H177.82H177.59H177.36H177.129H176.898H176.667H176.436H176.205H175.973H175.741H175.508H175.276H175.043H174.81H174.576H174.342H174.109H173.874H173.64H173.405H173.17H172.934H172.699H172.463H172.226H171.99H171.753H171.516H171.278H171.04H170.802H170.564H170.325H170.086H169.847H169.607H169.367H169.127H168.886H168.646H168.404H168.163H167.921H167.679H167.436H167.193H166.95H166.707H166.463H166.219H165.974H165.729H165.484H165.239H164.993H164.746H164.5H164.253H164.006H163.758H163.51H163.262H163.013H162.764H162.514H162.264H162.014H161.764H161.513H161.262H161.01H160.758H160.505H160.253H159.999H159.746H159.492H159.238H158.983H158.728H158.472H158.217H157.96H157.704H157.447H157.189H156.931H156.673H156.414H156.155H155.896H155.636H155.375H155.115H154.854H154.592H154.33H154.068H153.805H153.542H153.278H153.014H152.749H152.484H152.219H151.953H151.687H151.42H151.153H150.886H150.617H150.349H150.08H149.811H149.541H149.271H149Z" stroke="#F2C94C" stroke-width="2"/>
</g>
<path d="M32.016 29.392V31H26.46V22.684H28.332V29.392H32.016Z" fill="#2D9CDB"/>
<path d="M33.2217 31V22.684H38.8377V24.256H35.0937V25.888H38.4177V27.424H35.0937V29.428H39.1137V31H33.2217ZM46.0671 31C45.9791 30.712 45.8791 30.416 45.7671 30.112C45.6631 29.808 45.5591 29.504 45.4551 29.2H42.2151C42.1111 29.504 42.0031 29.808 41.8911 30.112C41.7871 30.416 41.6911 30.712 41.6031 31H39.6591C39.9711 30.104 40.2671 29.276 40.5471 28.516C40.8271 27.756 41.0991 27.04 41.3631 26.368C41.6351 25.696 41.8991 25.06 42.1551 24.46C42.4191 23.852 42.6911 23.26 42.9711 22.684H44.7591C45.0311 23.26 45.2991 23.852 45.5631 24.46C45.8271 25.06 46.0911 25.696 46.3551 26.368C46.6271 27.04 46.9031 27.756 47.1831 28.516C47.4631 29.276 47.7591 30.104 48.0711 31H46.0671ZM43.8231 24.568C43.7831 24.688 43.7231 24.852 43.6431 25.06C43.5631 25.268 43.4711 25.508 43.3671 25.78C43.2631 26.052 43.1471 26.352 43.0191 26.68C42.8991 27.008 42.7751 27.352 42.6471 27.712H45.0111C44.8831 27.352 44.7591 27.008 44.6391 26.68C44.5191 26.352 44.4031 26.052 44.2911 25.78C44.1871 25.508 44.0951 25.268 44.0151 25.06C43.9351 24.852 43.8711 24.688 43.8231 24.568ZM51.5835 22.588C52.8315 22.588 53.7875 22.812 54.4515 23.26C55.1155 23.7 55.4475 24.388 55.4475 25.324C55.4475 25.908 55.3115 26.384 55.0395 26.752C54.7755 27.112 54.3915 27.396 53.8875 27.604C54.0555 27.812 54.2315 28.052 54.4155 28.324C54.5995 28.588 54.7795 28.868 54.9555 29.164C55.1395 29.452 55.3155 29.756 55.4835 30.076C55.6515 30.388 55.8075 30.696 55.9515 31H53.8515C53.6995 30.728 53.5435 30.452 53.3835 30.172C53.2315 29.892 53.0715 29.62 52.9035 29.356C52.7435 29.092 52.5835 28.844 52.4235 28.612C52.2635 28.372 52.1035 28.156 51.9435 27.964H51.0195V31H49.1475V22.804C49.5555 22.724 49.9755 22.668 50.4075 22.636C50.8475 22.604 51.2395 22.588 51.5835 22.588ZM51.6915 24.184C51.5555 24.184 51.4315 24.188 51.3195 24.196C51.2155 24.204 51.1155 24.212 51.0195 24.22V26.476H51.5475C52.2515 26.476 52.7555 26.388 53.0595 26.212C53.3635 26.036 53.5155 25.736 53.5155 25.312C53.5155 24.904 53.3595 24.616 53.0475 24.448C52.7435 24.272 52.2915 24.184 51.6915 24.184ZM62.7314 31C62.1954 30.048 61.6154 29.108 60.9914 28.18C60.3674 27.252 59.7034 26.376 58.9994 25.552V31H57.1514V22.684H58.6754C58.9394 22.948 59.2314 23.272 59.5514 23.656C59.8714 24.04 60.1954 24.452 60.5234 24.892C60.8594 25.324 61.1914 25.776 61.5194 26.248C61.8474 26.712 62.1554 27.16 62.4434 27.592V22.684H64.3034V31H62.7314ZM79.8752 26.104C80.2112 25.536 80.5312 24.968 80.8352 24.4C81.1392 23.832 81.4192 23.26 81.6752 22.684H83.7392C83.2832 23.58 82.8112 24.448 82.3232 25.288C81.8352 26.128 81.3192 26.972 80.7752 27.82V31H78.9032V27.844C78.3592 26.996 77.8392 26.148 77.3432 25.3C76.8552 24.452 76.3832 23.58 75.9272 22.684H78.0992C78.3552 23.26 78.6312 23.832 78.9272 24.4C79.2232 24.968 79.5392 25.536 79.8752 26.104ZM91.3389 22.684V24.28H88.8309V31H86.9589V24.28H84.4509V22.684H91.3389ZM97.558 22.684H99.43V31H97.558V27.472H94.414V31H92.542V22.684H94.414V25.864H97.558V22.684ZM102.927 26.836C102.927 27.244 102.975 27.612 103.071 27.94C103.175 28.268 103.319 28.552 103.503 28.792C103.695 29.024 103.927 29.204 104.199 29.332C104.471 29.46 104.783 29.524 105.135 29.524C105.479 29.524 105.787 29.46 106.059 29.332C106.339 29.204 106.571 29.024 106.755 28.792C106.947 28.552 107.091 28.268 107.187 27.94C107.291 27.612 107.343 27.244 107.343 26.836C107.343 26.428 107.291 26.06 107.187 25.732C107.091 25.396 106.947 25.112 106.755 24.88C106.571 24.64 106.339 24.456 106.059 24.328C105.787 24.2 105.479 24.136 105.135 24.136C104.783 24.136 104.471 24.204 104.199 24.34C103.927 24.468 103.695 24.652 103.503 24.892C103.319 25.124 103.175 25.408 103.071 25.744C102.975 26.072 102.927 26.436 102.927 26.836ZM109.275 26.836C109.275 27.548 109.167 28.176 108.951 28.72C108.743 29.256 108.455 29.708 108.087 30.076C107.719 30.436 107.279 30.708 106.767 30.892C106.263 31.076 105.719 31.168 105.135 31.168C104.567 31.168 104.031 31.076 103.527 30.892C103.023 30.708 102.583 30.436 102.207 30.076C101.831 29.708 101.535 29.256 101.319 28.72C101.103 28.176 100.995 27.548 100.995 26.836C100.995 26.124 101.107 25.5 101.331 24.964C101.555 24.42 101.855 23.964 102.231 23.596C102.615 23.228 103.055 22.952 103.551 22.768C104.055 22.584 104.583 22.492 105.135 22.492C105.703 22.492 106.239 22.584 106.743 22.768C107.247 22.952 107.687 23.228 108.063 23.596C108.439 23.964 108.735 24.42 108.951 24.964C109.167 25.5 109.275 26.124 109.275 26.836ZM116.415 31C115.879 30.048 115.299 29.108 114.675 28.18C114.051 27.252 113.387 26.376 112.683 25.552V31H110.835V22.684H112.359C112.623 22.948 112.915 23.272 113.235 23.656C113.555 24.04 113.879 24.452 114.207 24.892C114.543 25.324 114.875 25.776 115.203 26.248C115.531 26.712 115.839 27.16 116.127 27.592V22.684H117.987V31H116.415ZM30.264 46.848C30.184 46.656 30.076 46.412 29.94 46.116C29.812 45.82 29.672 45.5 29.52 45.156C29.368 44.812 29.204 44.46 29.028 44.1C28.86 43.732 28.7 43.388 28.548 43.068C28.396 42.74 28.252 42.448 28.116 42.192C27.988 41.936 27.884 41.74 27.804 41.604C27.716 42.548 27.644 43.572 27.588 44.676C27.532 45.772 27.484 46.88 27.444 48H26.304C26.336 47.28 26.372 46.556 26.412 45.828C26.452 45.092 26.496 44.372 26.544 43.668C26.6 42.956 26.656 42.264 26.712 41.592C26.776 40.92 26.844 40.284 26.916 39.684H27.936C28.152 40.036 28.384 40.452 28.632 40.932C28.88 41.412 29.128 41.916 29.376 42.444C29.624 42.964 29.864 43.488 30.096 44.016C30.328 44.536 30.54 45.012 30.732 45.444C30.924 45.012 31.136 44.536 31.368 44.016C31.6 43.488 31.84 42.964 32.088 42.444C32.336 41.916 32.584 41.412 32.832 40.932C33.08 40.452 33.312 40.036 33.528 39.684H34.548C34.82 42.364 35.024 45.136 35.16 48H34.02C33.98 46.88 33.932 45.772 33.876 44.676C33.82 43.572 33.748 42.548 33.66 41.604C33.58 41.74 33.472 41.936 33.336 42.192C33.208 42.448 33.068 42.74 32.916 43.068C32.764 43.388 32.6 43.732 32.424 44.1C32.256 44.46 32.096 44.812 31.944 45.156C31.792 45.5 31.648 45.82 31.512 46.116C31.384 46.412 31.28 46.656 31.2 46.848H30.264ZM42.4211 44.88C42.4211 45.376 42.3491 45.824 42.2051 46.224C42.0611 46.624 41.8571 46.968 41.5931 47.256C41.3371 47.544 41.0291 47.768 40.6691 47.928C40.3091 48.08 39.9171 48.156 39.4931 48.156C39.0691 48.156 38.6771 48.08 38.3171 47.928C37.9571 47.768 37.6451 47.544 37.3811 47.256C37.1251 46.968 36.9251 46.624 36.7811 46.224C36.6371 45.824 36.5651 45.376 36.5651 44.88C36.5651 44.392 36.6371 43.948 36.7811 43.548C36.9251 43.14 37.1251 42.792 37.3811 42.504C37.6451 42.216 37.9571 41.996 38.3171 41.844C38.6771 41.684 39.0691 41.604 39.4931 41.604C39.9171 41.604 40.3091 41.684 40.6691 41.844C41.0291 41.996 41.3371 42.216 41.5931 42.504C41.8571 42.792 42.0611 43.14 42.2051 43.548C42.3491 43.948 42.4211 44.392 42.4211 44.88ZM41.2571 44.88C41.2571 44.176 41.0971 43.62 40.7771 43.212C40.4651 42.796 40.0371 42.588 39.4931 42.588C38.9491 42.588 38.5171 42.796 38.1971 43.212C37.8851 43.62 37.7291 44.176 37.7291 44.88C37.7291 45.584 37.8851 46.144 38.1971 46.56C38.5171 46.968 38.9491 47.172 39.4931 47.172C40.0371 47.172 40.4651 46.968 40.7771 46.56C41.0971 46.144 41.2571 45.584 41.2571 44.88ZM46.7033 48.144C46.1993 48.144 45.7553 48.064 45.3713 47.904C44.9953 47.744 44.6753 47.52 44.4113 47.232C44.1553 46.944 43.9633 46.604 43.8353 46.212C43.7073 45.812 43.6433 45.372 43.6433 44.892C43.6433 44.412 43.7113 43.972 43.8473 43.572C43.9913 43.172 44.1913 42.828 44.4473 42.54C44.7033 42.244 45.0153 42.016 45.3833 41.856C45.7593 41.688 46.1753 41.604 46.6313 41.604C46.9113 41.604 47.1913 41.628 47.4713 41.676C47.7513 41.724 48.0193 41.8 48.2753 41.904L48.0233 42.852C47.8553 42.772 47.6593 42.708 47.4353 42.66C47.2193 42.612 46.9873 42.588 46.7393 42.588C46.1153 42.588 45.6353 42.784 45.2993 43.176C44.9713 43.568 44.8073 44.14 44.8073 44.892C44.8073 45.228 44.8433 45.536 44.9153 45.816C44.9953 46.096 45.1153 46.336 45.2753 46.536C45.4433 46.736 45.6553 46.892 45.9113 47.004C46.1673 47.108 46.4793 47.16 46.8473 47.16C47.1433 47.16 47.4113 47.132 47.6513 47.076C47.8913 47.02 48.0793 46.96 48.2153 46.896L48.3713 47.832C48.3073 47.872 48.2153 47.912 48.0953 47.952C47.9753 47.984 47.8393 48.012 47.6873 48.036C47.5353 48.068 47.3713 48.092 47.1953 48.108C47.0273 48.132 46.8633 48.144 46.7033 48.144ZM51.8494 44.604C52.0974 44.78 52.3654 45.004 52.6534 45.276C52.9414 45.54 53.2214 45.828 53.4934 46.14C53.7734 46.452 54.0334 46.772 54.2734 47.1C54.5134 47.42 54.7174 47.72 54.8854 48H53.5654C53.3894 47.728 53.1814 47.452 52.9414 47.172C52.7094 46.884 52.4654 46.608 52.2094 46.344C51.9534 46.08 51.6934 45.836 51.4294 45.612C51.1654 45.388 50.9174 45.2 50.6854 45.048V48H49.5694V41.76H50.6854V44.436C50.8774 44.252 51.0974 44.04 51.3454 43.8C51.5934 43.552 51.8414 43.304 52.0894 43.056C52.3454 42.8 52.5814 42.56 52.7974 42.336C53.0134 42.104 53.1894 41.912 53.3254 41.76H54.6214C54.4454 41.952 54.2374 42.172 53.9974 42.42C53.7654 42.66 53.5214 42.908 53.2654 43.164C53.0174 43.42 52.7694 43.676 52.5214 43.932C52.2734 44.18 52.0494 44.404 51.8494 44.604ZM57.1067 47.16C57.1547 47.168 57.2227 47.176 57.3107 47.184C57.3987 47.192 57.4987 47.2 57.6107 47.208C57.7227 47.208 57.8387 47.212 57.9587 47.22C58.0867 47.22 58.2067 47.22 58.3187 47.22C58.5507 47.22 58.7707 47.204 58.9787 47.172C59.1947 47.14 59.3787 47.084 59.5307 47.004C59.6907 46.924 59.8147 46.82 59.9027 46.692C59.9987 46.556 60.0467 46.384 60.0467 46.176C60.0467 45.976 60.0027 45.812 59.9147 45.684C59.8347 45.548 59.7227 45.44 59.5787 45.36C59.4347 45.28 59.2627 45.224 59.0627 45.192C58.8707 45.16 58.6627 45.144 58.4387 45.144H57.1067V47.16ZM58.2947 44.316C58.5107 44.316 58.7067 44.304 58.8827 44.28C59.0667 44.248 59.2227 44.196 59.3507 44.124C59.4867 44.052 59.5907 43.956 59.6627 43.836C59.7427 43.716 59.7827 43.564 59.7827 43.38C59.7827 43.188 59.7347 43.036 59.6387 42.924C59.5427 42.812 59.4147 42.728 59.2547 42.672C59.1027 42.608 58.9267 42.568 58.7267 42.552C58.5347 42.528 58.3387 42.516 58.1387 42.516C57.9547 42.516 57.7667 42.52 57.5747 42.528C57.3907 42.536 57.2347 42.544 57.1067 42.552V44.316H58.2947ZM58.2707 48.108C57.7987 48.108 57.3627 48.084 56.9627 48.036C56.5627 47.996 56.2467 47.948 56.0147 47.892V41.82C56.2467 41.764 56.5627 41.716 56.9627 41.676C57.3627 41.628 57.7987 41.604 58.2707 41.604C58.5987 41.604 58.9187 41.632 59.2307 41.688C59.5427 41.744 59.8187 41.84 60.0587 41.976C60.2987 42.104 60.4907 42.284 60.6347 42.516C60.7867 42.74 60.8627 43.02 60.8627 43.356C60.8627 43.66 60.7867 43.92 60.6347 44.136C60.4827 44.352 60.2787 44.52 60.0227 44.64C60.3667 44.76 60.6387 44.94 60.8387 45.18C61.0467 45.412 61.1507 45.74 61.1507 46.164C61.1507 46.54 61.0747 46.852 60.9227 47.1C60.7787 47.348 60.5747 47.548 60.3107 47.7C60.0547 47.852 59.7507 47.956 59.3987 48.012C59.0467 48.076 58.6707 48.108 58.2707 48.108ZM64.7009 47.196C64.9649 47.196 65.1969 47.192 65.3969 47.184C65.6049 47.168 65.7769 47.144 65.9129 47.112V45.252C65.8329 45.212 65.7009 45.18 65.5169 45.156C65.3409 45.124 65.1249 45.108 64.8689 45.108C64.7009 45.108 64.5209 45.12 64.3289 45.144C64.1449 45.168 63.9729 45.22 63.8129 45.3C63.6609 45.372 63.5329 45.476 63.4289 45.612C63.3249 45.74 63.2729 45.912 63.2729 46.128C63.2729 46.528 63.4009 46.808 63.6569 46.968C63.9129 47.12 64.2609 47.196 64.7009 47.196ZM64.6049 41.604C65.0529 41.604 65.4289 41.664 65.7329 41.784C66.0449 41.896 66.2929 42.06 66.4769 42.276C66.6689 42.484 66.8049 42.736 66.8849 43.032C66.9649 43.32 67.0049 43.64 67.0049 43.992V47.892C66.9089 47.908 66.7729 47.932 66.5969 47.964C66.4289 47.988 66.2369 48.012 66.0209 48.036C65.8049 48.06 65.5689 48.08 65.3129 48.096C65.0649 48.12 64.8169 48.132 64.5689 48.132C64.2169 48.132 63.8929 48.096 63.5969 48.024C63.3009 47.952 63.0449 47.84 62.8289 47.688C62.6129 47.528 62.4449 47.32 62.3249 47.064C62.2049 46.808 62.1449 46.5 62.1449 46.14C62.1449 45.796 62.2129 45.5 62.3489 45.252C62.4929 45.004 62.6849 44.804 62.9249 44.652C63.1649 44.5 63.4449 44.388 63.7649 44.316C64.0849 44.244 64.4209 44.208 64.7729 44.208C64.8849 44.208 65.0009 44.216 65.1209 44.232C65.2409 44.24 65.3529 44.256 65.4569 44.28C65.5689 44.296 65.6649 44.312 65.7449 44.328C65.8249 44.344 65.8809 44.356 65.9129 44.364V44.052C65.9129 43.868 65.8929 43.688 65.8529 43.512C65.8129 43.328 65.7409 43.168 65.6369 43.032C65.5329 42.888 65.3889 42.776 65.2049 42.696C65.0289 42.608 64.7969 42.564 64.5089 42.564C64.1409 42.564 63.8169 42.592 63.5369 42.648C63.2649 42.696 63.0609 42.748 62.9249 42.804L62.7929 41.88C62.9369 41.816 63.1769 41.756 63.5129 41.7C63.8489 41.636 64.2129 41.604 64.6049 41.604ZM70.0344 46.632C70.0424 46.696 70.0464 46.76 70.0464 46.824C70.0464 46.88 70.0464 46.94 70.0464 47.004C70.0464 47.508 69.9704 48.004 69.8184 48.492C69.6744 48.988 69.4744 49.46 69.2184 49.908L68.3544 49.632C68.5544 49.224 68.6864 48.808 68.7504 48.384C68.8144 47.968 68.8464 47.576 68.8464 47.208C68.8464 47.104 68.8424 47.004 68.8344 46.908C68.8344 46.812 68.8304 46.72 68.8224 46.632H70.0344ZM75.8249 40.68V42.792H76.8569C77.4409 42.792 77.9609 42.84 78.4169 42.936C78.8809 43.032 79.2729 43.188 79.5929 43.404C79.9129 43.612 80.1569 43.884 80.3249 44.22C80.4929 44.548 80.5769 44.952 80.5769 45.432C80.5769 46.312 80.2569 46.976 79.6169 47.424C78.9769 47.864 78.0729 48.084 76.9049 48.084C76.7369 48.084 76.5529 48.08 76.3529 48.072C76.1609 48.064 75.9649 48.052 75.7649 48.036C75.5729 48.02 75.3809 48 75.1889 47.976C74.9969 47.952 74.8209 47.92 74.6609 47.88V39.684H79.7969V40.68H75.8249ZM77.0009 47.064C77.3129 47.064 77.6089 47.04 77.8889 46.992C78.1769 46.944 78.4289 46.86 78.6449 46.74C78.8609 46.612 79.0329 46.444 79.1609 46.236C79.2889 46.028 79.3529 45.764 79.3529 45.444C79.3529 45.108 79.2929 44.832 79.1729 44.616C79.0609 44.4 78.8969 44.228 78.6809 44.1C78.4649 43.972 78.1969 43.884 77.8769 43.836C77.5649 43.78 77.2089 43.752 76.8089 43.752H75.8249V47.028C75.9129 47.036 76.0169 47.044 76.1369 47.052C76.2409 47.06 76.3649 47.064 76.5089 47.064C76.6529 47.064 76.8169 47.064 77.0009 47.064ZM87.5266 44.88C87.5266 45.376 87.4546 45.824 87.3106 46.224C87.1666 46.624 86.9626 46.968 86.6986 47.256C86.4426 47.544 86.1346 47.768 85.7746 47.928C85.4146 48.08 85.0226 48.156 84.5986 48.156C84.1746 48.156 83.7826 48.08 83.4226 47.928C83.0626 47.768 82.7506 47.544 82.4866 47.256C82.2306 46.968 82.0306 46.624 81.8866 46.224C81.7426 45.824 81.6706 45.376 81.6706 44.88C81.6706 44.392 81.7426 43.948 81.8866 43.548C82.0306 43.14 82.2306 42.792 82.4866 42.504C82.7506 42.216 83.0626 41.996 83.4226 41.844C83.7826 41.684 84.1746 41.604 84.5986 41.604C85.0226 41.604 85.4146 41.684 85.7746 41.844C86.1346 41.996 86.4426 42.216 86.6986 42.504C86.9626 42.792 87.1666 43.14 87.3106 43.548C87.4546 43.948 87.5266 44.392 87.5266 44.88ZM86.3626 44.88C86.3626 44.176 86.2026 43.62 85.8826 43.212C85.5706 42.796 85.1426 42.588 84.5986 42.588C84.0546 42.588 83.6226 42.796 83.3026 43.212C82.9906 43.62 82.8346 44.176 82.8346 44.88C82.8346 45.584 82.9906 46.144 83.3026 46.56C83.6226 46.968 84.0546 47.172 84.5986 47.172C85.1426 47.172 85.5706 46.968 85.8826 46.56C86.2026 46.144 86.3626 45.584 86.3626 44.88ZM91.2687 42.696C91.2687 42.96 91.2607 43.244 91.2447 43.548C91.2367 43.844 91.2167 44.144 91.1847 44.448C91.1527 44.744 91.1087 45.04 91.0527 45.336C90.9967 45.624 90.9247 45.896 90.8367 46.152C90.7487 46.408 90.6367 46.648 90.5007 46.872C90.3727 47.096 90.2127 47.296 90.0207 47.472C89.8287 47.64 89.6047 47.784 89.3487 47.904C89.0927 48.016 88.7927 48.088 88.4487 48.12L88.2927 47.184C88.6847 47.104 88.9927 46.956 89.2167 46.74C89.4487 46.524 89.6327 46.26 89.7687 45.948C89.8887 45.676 89.9767 45.368 90.0327 45.024C90.0887 44.68 90.1287 44.324 90.1527 43.956C90.1767 43.58 90.1887 43.204 90.1887 42.828C90.1967 42.452 90.2007 42.096 90.2007 41.76H94.3527V48H93.2367V42.696H91.2687ZM98.6326 47.22C99.1046 47.22 99.4766 47.128 99.7486 46.944C100.021 46.76 100.157 46.464 100.157 46.056C100.157 45.856 100.117 45.684 100.037 45.54C99.9566 45.396 99.8446 45.28 99.7006 45.192C99.5646 45.096 99.4046 45.028 99.2206 44.988C99.0366 44.94 98.8406 44.916 98.6326 44.916C98.4166 44.916 98.1926 44.924 97.9606 44.94C97.7366 44.948 97.5446 44.972 97.3846 45.012V47.16C97.4326 47.168 97.5046 47.176 97.6006 47.184C97.6966 47.192 97.8006 47.2 97.9126 47.208C98.0326 47.208 98.1526 47.212 98.2726 47.22C98.4006 47.22 98.5206 47.22 98.6326 47.22ZM96.2686 47.868V41.76H97.3846V44.148C97.4486 44.132 97.5326 44.116 97.6366 44.1C97.7486 44.084 97.8646 44.068 97.9846 44.052C98.1126 44.036 98.2446 44.024 98.3806 44.016C98.5166 44.008 98.6446 44.004 98.7646 44.004C99.1086 44.004 99.4326 44.044 99.7366 44.124C100.041 44.196 100.305 44.316 100.529 44.484C100.761 44.644 100.945 44.856 101.081 45.12C101.217 45.376 101.285 45.684 101.285 46.044C101.285 46.42 101.221 46.74 101.093 47.004C100.965 47.268 100.781 47.484 100.541 47.652C100.301 47.82 100.013 47.94 99.6766 48.012C99.3486 48.092 98.9806 48.132 98.5726 48.132C98.1726 48.132 97.7806 48.108 97.3966 48.06C97.0126 48.02 96.6366 47.956 96.2686 47.868ZM102.608 48V41.76H103.724V47.076H106.028V41.76H107.144V47.076H109.448V41.76H110.564V48H102.608ZM114.599 47.196C114.863 47.196 115.095 47.192 115.295 47.184C115.503 47.168 115.675 47.144 115.811 47.112V45.252C115.731 45.212 115.599 45.18 115.415 45.156C115.239 45.124 115.023 45.108 114.767 45.108C114.599 45.108 114.419 45.12 114.227 45.144C114.043 45.168 113.871 45.22 113.711 45.3C113.559 45.372 113.431 45.476 113.327 45.612C113.223 45.74 113.171 45.912 113.171 46.128C113.171 46.528 113.299 46.808 113.555 46.968C113.811 47.12 114.159 47.196 114.599 47.196ZM114.503 41.604C114.951 41.604 115.327 41.664 115.631 41.784C115.943 41.896 116.191 42.06 116.375 42.276C116.567 42.484 116.703 42.736 116.783 43.032C116.863 43.32 116.903 43.64 116.903 43.992V47.892C116.807 47.908 116.671 47.932 116.495 47.964C116.327 47.988 116.135 48.012 115.919 48.036C115.703 48.06 115.467 48.08 115.211 48.096C114.963 48.12 114.715 48.132 114.467 48.132C114.115 48.132 113.791 48.096 113.495 48.024C113.199 47.952 112.943 47.84 112.727 47.688C112.511 47.528 112.343 47.32 112.223 47.064C112.103 46.808 112.043 46.5 112.043 46.14C112.043 45.796 112.111 45.5 112.247 45.252C112.391 45.004 112.583 44.804 112.823 44.652C113.063 44.5 113.343 44.388 113.663 44.316C113.983 44.244 114.319 44.208 114.671 44.208C114.783 44.208 114.899 44.216 115.019 44.232C115.139 44.24 115.251 44.256 115.355 44.28C115.467 44.296 115.563 44.312 115.643 44.328C115.723 44.344 115.779 44.356 115.811 44.364V44.052C115.811 43.868 115.791 43.688 115.751 43.512C115.711 43.328 115.639 43.168 115.535 43.032C115.431 42.888 115.287 42.776 115.103 42.696C114.927 42.608 114.695 42.564 114.407 42.564C114.039 42.564 113.715 42.592 113.435 42.648C113.163 42.696 112.959 42.748 112.823 42.804L112.691 41.88C112.835 41.816 113.075 41.756 113.411 41.7C113.747 41.636 114.111 41.604 114.503 41.604ZM121.337 45.576C121.217 45.576 121.101 45.576 120.989 45.576C120.877 45.568 120.769 45.56 120.665 45.552C120.409 45.936 120.161 46.348 119.921 46.788C119.689 47.22 119.481 47.624 119.297 48H118.169C118.265 47.768 118.377 47.532 118.505 47.292C118.633 47.044 118.761 46.804 118.889 46.572C119.025 46.34 119.161 46.12 119.297 45.912C119.433 45.704 119.561 45.516 119.681 45.348C119.457 45.268 119.273 45.172 119.129 45.06C118.985 44.94 118.869 44.808 118.781 44.664C118.693 44.52 118.629 44.368 118.589 44.208C118.557 44.04 118.541 43.872 118.541 43.704C118.541 43.352 118.605 43.044 118.733 42.78C118.869 42.516 119.053 42.3 119.285 42.132C119.517 41.956 119.789 41.824 120.101 41.736C120.421 41.648 120.769 41.604 121.145 41.604C121.673 41.604 122.121 41.628 122.489 41.676C122.857 41.724 123.165 41.78 123.413 41.844V48H122.309V45.576H121.337ZM122.309 42.588C122.221 42.572 122.073 42.556 121.865 42.54C121.665 42.524 121.433 42.516 121.169 42.516C120.713 42.516 120.345 42.612 120.065 42.804C119.785 42.988 119.645 43.284 119.645 43.692C119.645 44.092 119.789 44.368 120.077 44.52C120.365 44.672 120.737 44.748 121.193 44.748H122.309V42.588ZM134.504 39.684V48H133.34V40.68H129.344V48H128.18V39.684H134.504ZM142.007 44.88C142.007 45.376 141.935 45.824 141.791 46.224C141.647 46.624 141.443 46.968 141.179 47.256C140.923 47.544 140.615 47.768 140.255 47.928C139.895 48.08 139.503 48.156 139.079 48.156C138.655 48.156 138.263 48.08 137.903 47.928C137.543 47.768 137.231 47.544 136.967 47.256C136.711 46.968 136.511 46.624 136.367 46.224C136.223 45.824 136.151 45.376 136.151 44.88C136.151 44.392 136.223 43.948 136.367 43.548C136.511 43.14 136.711 42.792 136.967 42.504C137.231 42.216 137.543 41.996 137.903 41.844C138.263 41.684 138.655 41.604 139.079 41.604C139.503 41.604 139.895 41.684 140.255 41.844C140.615 41.996 140.923 42.216 141.179 42.504C141.443 42.792 141.647 43.14 141.791 43.548C141.935 43.948 142.007 44.392 142.007 44.88ZM140.843 44.88C140.843 44.176 140.683 43.62 140.363 43.212C140.051 42.796 139.623 42.588 139.079 42.588C138.535 42.588 138.103 42.796 137.783 43.212C137.471 43.62 137.315 44.176 137.315 44.88C137.315 45.584 137.471 46.144 137.783 46.56C138.103 46.968 138.535 47.172 139.079 47.172C139.623 47.172 140.051 46.968 140.363 46.56C140.683 46.144 140.843 45.584 140.843 44.88ZM145.749 42.696C145.749 42.96 145.741 43.244 145.725 43.548C145.717 43.844 145.697 44.144 145.665 44.448C145.633 44.744 145.589 45.04 145.533 45.336C145.477 45.624 145.405 45.896 145.317 46.152C145.229 46.408 145.117 46.648 144.981 46.872C144.853 47.096 144.693 47.296 144.501 47.472C144.309 47.64 144.085 47.784 143.829 47.904C143.573 48.016 143.273 48.088 142.929 48.12L142.773 47.184C143.165 47.104 143.473 46.956 143.697 46.74C143.929 46.524 144.113 46.26 144.249 45.948C144.369 45.676 144.457 45.368 144.513 45.024C144.569 44.68 144.609 44.324 144.633 43.956C144.657 43.58 144.669 43.204 144.669 42.828C144.677 42.452 144.681 42.096 144.681 41.76H148.833V48H147.717V42.696H145.749ZM153.329 45.576C153.209 45.576 153.093 45.576 152.981 45.576C152.869 45.568 152.761 45.56 152.657 45.552C152.401 45.936 152.153 46.348 151.913 46.788C151.681 47.22 151.473 47.624 151.289 48H150.161C150.257 47.768 150.369 47.532 150.497 47.292C150.625 47.044 150.753 46.804 150.881 46.572C151.017 46.34 151.153 46.12 151.289 45.912C151.425 45.704 151.553 45.516 151.673 45.348C151.449 45.268 151.265 45.172 151.121 45.06C150.977 44.94 150.861 44.808 150.773 44.664C150.685 44.52 150.621 44.368 150.581 44.208C150.549 44.04 150.533 43.872 150.533 43.704C150.533 43.352 150.597 43.044 150.725 42.78C150.861 42.516 151.045 42.3 151.277 42.132C151.509 41.956 151.781 41.824 152.093 41.736C152.413 41.648 152.761 41.604 153.137 41.604C153.665 41.604 154.113 41.628 154.481 41.676C154.849 41.724 155.157 41.78 155.405 41.844V48H154.301V45.576H153.329ZM154.301 42.588C154.213 42.572 154.065 42.556 153.857 42.54C153.657 42.524 153.425 42.516 153.161 42.516C152.705 42.516 152.337 42.612 152.057 42.804C151.777 42.988 151.637 43.284 151.637 43.692C151.637 44.092 151.781 44.368 152.069 44.52C152.357 44.672 152.729 44.748 153.185 44.748H154.301V42.588ZM162.435 48H161.319V45.24H158.439V48H157.323V41.76H158.439V44.304H161.319V41.76H162.435V48ZM166.635 44.604C166.883 44.78 167.151 45.004 167.439 45.276C167.727 45.54 168.007 45.828 168.279 46.14C168.559 46.452 168.819 46.772 169.059 47.1C169.299 47.42 169.503 47.72 169.671 48H168.351C168.175 47.728 167.967 47.452 167.727 47.172C167.495 46.884 167.251 46.608 166.995 46.344C166.739 46.08 166.479 45.836 166.215 45.612C165.951 45.388 165.703 45.2 165.471 45.048V48H164.355V41.76H165.471V44.436C165.663 44.252 165.883 44.04 166.131 43.8C166.379 43.552 166.627 43.304 166.875 43.056C167.131 42.8 167.367 42.56 167.583 42.336C167.799 42.104 167.975 41.912 168.111 41.76H169.407C169.231 41.952 169.023 42.172 168.783 42.42C168.551 42.66 168.307 42.908 168.051 43.164C167.803 43.42 167.555 43.676 167.307 43.932C167.059 44.18 166.835 44.404 166.635 44.604ZM172.912 47.196C173.176 47.196 173.408 47.192 173.608 47.184C173.816 47.168 173.988 47.144 174.124 47.112V45.252C174.044 45.212 173.912 45.18 173.728 45.156C173.552 45.124 173.336 45.108 173.08 45.108C172.912 45.108 172.732 45.12 172.54 45.144C172.356 45.168 172.184 45.22 172.024 45.3C171.872 45.372 171.744 45.476 171.64 45.612C171.536 45.74 171.484 45.912 171.484 46.128C171.484 46.528 171.612 46.808 171.868 46.968C172.124 47.12 172.472 47.196 172.912 47.196ZM172.816 41.604C173.264 41.604 173.64 41.664 173.944 41.784C174.256 41.896 174.504 42.06 174.688 42.276C174.88 42.484 175.016 42.736 175.096 43.032C175.176 43.32 175.216 43.64 175.216 43.992V47.892C175.12 47.908 174.984 47.932 174.808 47.964C174.64 47.988 174.448 48.012 174.232 48.036C174.016 48.06 173.78 48.08 173.524 48.096C173.276 48.12 173.028 48.132 172.78 48.132C172.428 48.132 172.104 48.096 171.808 48.024C171.512 47.952 171.256 47.84 171.04 47.688C170.824 47.528 170.656 47.32 170.536 47.064C170.416 46.808 170.356 46.5 170.356 46.14C170.356 45.796 170.424 45.5 170.56 45.252C170.704 45.004 170.896 44.804 171.136 44.652C171.376 44.5 171.656 44.388 171.976 44.316C172.296 44.244 172.632 44.208 172.984 44.208C173.096 44.208 173.212 44.216 173.332 44.232C173.452 44.24 173.564 44.256 173.668 44.28C173.78 44.296 173.876 44.312 173.956 44.328C174.036 44.344 174.092 44.356 174.124 44.364V44.052C174.124 43.868 174.104 43.688 174.064 43.512C174.024 43.328 173.952 43.168 173.848 43.032C173.744 42.888 173.6 42.776 173.416 42.696C173.24 42.608 173.008 42.564 172.72 42.564C172.352 42.564 172.028 42.592 171.748 42.648C171.476 42.696 171.272 42.748 171.136 42.804L171.004 41.88C171.148 41.816 171.388 41.756 171.724 41.7C172.06 41.636 172.424 41.604 172.816 41.604ZM178.245 46.632C178.253 46.696 178.257 46.76 178.257 46.824C178.257 46.88 178.257 46.94 178.257 47.004C178.257 47.508 178.181 48.004 178.029 48.492C177.885 48.988 177.685 49.46 177.429 49.908L176.565 49.632C176.765 49.224 176.897 48.808 176.961 48.384C177.025 47.968 177.057 47.576 177.057 47.208C177.057 47.104 177.053 47.004 177.045 46.908C177.045 46.812 177.041 46.72 177.033 46.632H178.245ZM187.444 41.808C187.444 42.096 187.384 42.376 187.264 42.648C187.152 42.912 187 43.176 186.808 43.44C186.616 43.696 186.4 43.952 186.16 44.208C185.92 44.456 185.68 44.7 185.44 44.94C185.304 45.076 185.144 45.236 184.96 45.42C184.784 45.604 184.616 45.796 184.456 45.996C184.296 46.196 184.16 46.388 184.048 46.572C183.944 46.756 183.892 46.916 183.892 47.052H187.72V48H182.68C182.672 47.952 182.668 47.904 182.668 47.856C182.668 47.808 182.668 47.764 182.668 47.724C182.668 47.348 182.728 47 182.848 46.68C182.976 46.352 183.14 46.044 183.34 45.756C183.54 45.468 183.764 45.196 184.012 44.94C184.26 44.684 184.504 44.436 184.744 44.196C184.944 44.004 185.132 43.816 185.308 43.632C185.492 43.44 185.652 43.252 185.788 43.068C185.932 42.876 186.044 42.68 186.124 42.48C186.212 42.28 186.256 42.068 186.256 41.844C186.256 41.604 186.216 41.4 186.136 41.232C186.064 41.064 185.964 40.924 185.836 40.812C185.708 40.7 185.556 40.62 185.38 40.572C185.212 40.516 185.032 40.488 184.84 40.488C184.608 40.488 184.396 40.52 184.204 40.584C184.012 40.648 183.84 40.724 183.688 40.812C183.536 40.892 183.408 40.98 183.304 41.076C183.2 41.164 183.12 41.232 183.064 41.28L182.512 40.488C182.584 40.408 182.692 40.312 182.836 40.2C182.98 40.08 183.152 39.968 183.352 39.864C183.552 39.76 183.776 39.672 184.024 39.6C184.272 39.528 184.54 39.492 184.828 39.492C185.7 39.492 186.352 39.696 186.784 40.104C187.224 40.504 187.444 41.072 187.444 41.808ZM189.465 50.22H188.325L192.393 38.604H193.509L189.465 50.22ZM194.335 41.4C194.791 41.224 195.235 41 195.667 40.728C196.099 40.448 196.495 40.1 196.855 39.684H197.647V48H196.531V41.232C196.435 41.32 196.315 41.412 196.171 41.508C196.035 41.604 195.883 41.696 195.715 41.784C195.555 41.872 195.383 41.956 195.199 42.036C195.023 42.116 194.851 42.184 194.683 42.24L194.335 41.4ZM200.592 43.836C200.592 42.444 200.836 41.372 201.324 40.62C201.82 39.868 202.504 39.492 203.376 39.492C204.248 39.492 204.928 39.868 205.416 40.62C205.912 41.372 206.16 42.444 206.16 43.836C206.16 45.228 205.912 46.3 205.416 47.052C204.928 47.804 204.248 48.18 203.376 48.18C202.504 48.18 201.82 47.804 201.324 47.052C200.836 46.3 200.592 45.228 200.592 43.836ZM204.984 43.836C204.984 43.38 204.956 42.948 204.9 42.54C204.852 42.132 204.764 41.776 204.636 41.472C204.516 41.168 204.352 40.928 204.144 40.752C203.936 40.568 203.68 40.476 203.376 40.476C203.072 40.476 202.816 40.568 202.608 40.752C202.4 40.928 202.232 41.168 202.104 41.472C201.984 41.776 201.896 42.132 201.84 42.54C201.792 42.948 201.768 43.38 201.768 43.836C201.768 44.292 201.792 44.724 201.84 45.132C201.896 45.54 201.984 45.896 202.104 46.2C202.232 46.504 202.4 46.748 202.608 46.932C202.816 47.108 203.072 47.196 203.376 47.196C203.68 47.196 203.936 47.108 204.144 46.932C204.352 46.748 204.516 46.504 204.636 46.2C204.764 45.896 204.852 45.54 204.9 45.132C204.956 44.724 204.984 44.292 204.984 43.836ZM210.438 48.144C209.934 48.144 209.49 48.064 209.106 47.904C208.73 47.744 208.41 47.52 208.146 47.232C207.89 46.944 207.698 46.604 207.57 46.212C207.442 45.812 207.378 45.372 207.378 44.892C207.378 44.412 207.446 43.972 207.582 43.572C207.726 43.172 207.926 42.828 208.182 42.54C208.438 42.244 208.75 42.016 209.118 41.856C209.494 41.688 209.91 41.604 210.366 41.604C210.646 41.604 210.926 41.628 211.206 41.676C211.486 41.724 211.754 41.8 212.01 41.904L211.758 42.852C211.59 42.772 211.394 42.708 211.17 42.66C210.954 42.612 210.722 42.588 210.474 42.588C209.85 42.588 209.37 42.784 209.034 43.176C208.706 43.568 208.542 44.14 208.542 44.892C208.542 45.228 208.578 45.536 208.65 45.816C208.73 46.096 208.85 46.336 209.01 46.536C209.178 46.736 209.39 46.892 209.646 47.004C209.902 47.108 210.214 47.16 210.582 47.16C210.878 47.16 211.146 47.132 211.386 47.076C211.626 47.02 211.814 46.96 211.95 46.896L212.106 47.832C212.042 47.872 211.95 47.912 211.83 47.952C211.71 47.984 211.574 48.012 211.422 48.036C211.27 48.068 211.106 48.092 210.93 48.108C210.762 48.132 210.598 48.144 210.438 48.144ZM213.46 41.4C213.916 41.224 214.36 41 214.792 40.728C215.224 40.448 215.62 40.1 215.98 39.684H216.772V48H215.656V41.232C215.56 41.32 215.44 41.412 215.296 41.508C215.16 41.604 215.008 41.696 214.84 41.784C214.68 41.872 214.508 41.956 214.324 42.036C214.148 42.116 213.976 42.184 213.808 42.24L213.46 41.4ZM29.172 64.144C28.668 64.144 28.224 64.064 27.84 63.904C27.464 63.744 27.144 63.52 26.88 63.232C26.624 62.944 26.432 62.604 26.304 62.212C26.176 61.812 26.112 61.372 26.112 60.892C26.112 60.412 26.18 59.972 26.316 59.572C26.46 59.172 26.66 58.828 26.916 58.54C27.172 58.244 27.484 58.016 27.852 57.856C28.228 57.688 28.644 57.604 29.1 57.604C29.38 57.604 29.66 57.628 29.94 57.676C30.22 57.724 30.488 57.8 30.744 57.904L30.492 58.852C30.324 58.772 30.128 58.708 29.904 58.66C29.688 58.612 29.456 58.588 29.208 58.588C28.584 58.588 28.104 58.784 27.768 59.176C27.44 59.568 27.276 60.14 27.276 60.892C27.276 61.228 27.312 61.536 27.384 61.816C27.464 62.096 27.584 62.336 27.744 62.536C27.912 62.736 28.124 62.892 28.38 63.004C28.636 63.108 28.948 63.16 29.316 63.16C29.612 63.16 29.88 63.132 30.12 63.076C30.36 63.02 30.548 62.96 30.684 62.896L30.84 63.832C30.776 63.872 30.684 63.912 30.564 63.952C30.444 63.984 30.308 64.012 30.156 64.036C30.004 64.068 29.84 64.092 29.664 64.108C29.496 64.132 29.332 64.144 29.172 64.144ZM36.6179 57.76V58.696H34.5899V64H33.4739V58.696H31.4459V57.76H36.6179ZM39.8806 63.196C40.1446 63.196 40.3766 63.192 40.5766 63.184C40.7846 63.168 40.9566 63.144 41.0926 63.112V61.252C41.0126 61.212 40.8806 61.18 40.6966 61.156C40.5206 61.124 40.3046 61.108 40.0486 61.108C39.8806 61.108 39.7006 61.12 39.5086 61.144C39.3246 61.168 39.1526 61.22 38.9926 61.3C38.8406 61.372 38.7126 61.476 38.6086 61.612C38.5046 61.74 38.4526 61.912 38.4526 62.128C38.4526 62.528 38.5806 62.808 38.8366 62.968C39.0926 63.12 39.4406 63.196 39.8806 63.196ZM39.7846 57.604C40.2326 57.604 40.6086 57.664 40.9126 57.784C41.2246 57.896 41.4726 58.06 41.6566 58.276C41.8486 58.484 41.9846 58.736 42.0646 59.032C42.1446 59.32 42.1846 59.64 42.1846 59.992V63.892C42.0886 63.908 41.9526 63.932 41.7766 63.964C41.6086 63.988 41.4166 64.012 41.2006 64.036C40.9846 64.06 40.7486 64.08 40.4926 64.096C40.2446 64.12 39.9966 64.132 39.7486 64.132C39.3966 64.132 39.0726 64.096 38.7766 64.024C38.4806 63.952 38.2246 63.84 38.0086 63.688C37.7926 63.528 37.6246 63.32 37.5046 63.064C37.3846 62.808 37.3246 62.5 37.3246 62.14C37.3246 61.796 37.3926 61.5 37.5286 61.252C37.6726 61.004 37.8646 60.804 38.1046 60.652C38.3446 60.5 38.6246 60.388 38.9446 60.316C39.2646 60.244 39.6006 60.208 39.9526 60.208C40.0646 60.208 40.1806 60.216 40.3006 60.232C40.4206 60.24 40.5326 60.256 40.6366 60.28C40.7486 60.296 40.8446 60.312 40.9246 60.328C41.0046 60.344 41.0606 60.356 41.0926 60.364V60.052C41.0926 59.868 41.0726 59.688 41.0326 59.512C40.9926 59.328 40.9206 59.168 40.8166 59.032C40.7126 58.888 40.5686 58.776 40.3846 58.696C40.2086 58.608 39.9766 58.564 39.6886 58.564C39.3206 58.564 38.9966 58.592 38.7166 58.648C38.4446 58.696 38.2406 58.748 38.1046 58.804L37.9726 57.88C38.1166 57.816 38.3566 57.756 38.6926 57.7C39.0286 57.636 39.3926 57.604 39.7846 57.604ZM49.1501 64H48.0341V61.24H45.1541V64H44.0381V57.76H45.1541V60.304H48.0341V57.76H49.1501V64ZM56.0494 63.076H56.8894V65.74H55.8334V64H51.0694V57.76H52.1854V63.076H54.9334V57.76H56.0494V63.076ZM63.3446 57.76V64H62.2646V59.248C62.0246 59.552 61.7606 59.908 61.4726 60.316C61.1846 60.724 60.8966 61.148 60.6086 61.588C60.3206 62.02 60.0446 62.448 59.7806 62.872C59.5166 63.296 59.2886 63.672 59.0966 64H58.1006V57.76H59.1806V62.248C59.3886 61.904 59.6246 61.528 59.8886 61.12C60.1526 60.704 60.4246 60.296 60.7046 59.896C60.9926 59.488 61.2766 59.1 61.5566 58.732C61.8446 58.356 62.1126 58.032 62.3606 57.76H63.3446ZM70.5048 57.76V64H69.4248V59.248C69.1848 59.552 68.9208 59.908 68.6328 60.316C68.3448 60.724 68.0568 61.148 67.7688 61.588C67.4808 62.02 67.2048 62.448 66.9408 62.872C66.6768 63.296 66.4488 63.672 66.2568 64H65.2608V57.76H66.3408V62.248C66.5488 61.904 66.7848 61.528 67.0488 61.12C67.3128 60.704 67.5848 60.296 67.8648 59.896C68.1528 59.488 68.4368 59.1 68.7168 58.732C69.0048 58.356 69.2728 58.032 69.5208 57.76H70.5048ZM76.3863 59.404C76.3063 60.196 76.2463 60.988 76.2063 61.78C76.1663 62.564 76.1343 63.304 76.1103 64H75.0423C75.0583 63.512 75.0823 63.004 75.1143 62.476C75.1463 61.94 75.1823 61.404 75.2223 60.868C75.2623 60.324 75.3063 59.792 75.3543 59.272C75.4023 58.744 75.4543 58.24 75.5103 57.76H76.5303C76.7863 58.176 77.0863 58.748 77.4303 59.476C77.7743 60.196 78.1703 61.028 78.6183 61.972C79.0663 61.028 79.4623 60.196 79.8063 59.476C80.1503 58.748 80.4503 58.176 80.7063 57.76H81.7383C81.7943 58.24 81.8463 58.744 81.8943 59.272C81.9423 59.792 81.9863 60.324 82.0263 60.868C82.0663 61.404 82.1023 61.94 82.1343 62.476C82.1663 63.004 82.1903 63.512 82.2063 64H81.1023C81.0783 63.304 81.0463 62.564 81.0063 61.78C80.9663 60.988 80.9063 60.196 80.8263 59.404C80.6983 59.652 80.5503 59.952 80.3823 60.304C80.2143 60.648 80.0463 61 79.8783 61.36C79.7183 61.72 79.5663 62.064 79.4223 62.392C79.2783 62.72 79.1663 62.98 79.0863 63.172H78.1503C78.0623 62.972 77.9423 62.708 77.7903 62.38C77.6463 62.052 77.4903 61.708 77.3223 61.348C77.1623 60.98 76.9983 60.624 76.8303 60.28C76.6623 59.928 76.5143 59.636 76.3863 59.404ZM83.6276 60.892C83.6276 60.34 83.7076 59.86 83.8676 59.452C84.0276 59.036 84.2396 58.692 84.5036 58.42C84.7676 58.148 85.0716 57.944 85.4156 57.808C85.7596 57.672 86.1116 57.604 86.4716 57.604C87.3116 57.604 87.9556 57.868 88.4036 58.396C88.8516 58.916 89.0756 59.712 89.0756 60.784C89.0756 60.832 89.0756 60.896 89.0756 60.976C89.0756 61.048 89.0716 61.116 89.0636 61.18H84.7916C84.8396 61.828 85.0276 62.32 85.3556 62.656C85.6836 62.992 86.1956 63.16 86.8916 63.16C87.2836 63.16 87.6116 63.128 87.8756 63.064C88.1476 62.992 88.3516 62.924 88.4876 62.86L88.6436 63.796C88.5076 63.868 88.2676 63.944 87.9236 64.024C87.5876 64.104 87.2036 64.144 86.7716 64.144C86.2276 64.144 85.7556 64.064 85.3556 63.904C84.9636 63.736 84.6396 63.508 84.3836 63.22C84.1276 62.932 83.9356 62.592 83.8076 62.2C83.6876 61.8 83.6276 61.364 83.6276 60.892ZM87.9116 60.28C87.9196 59.776 87.7916 59.364 87.5276 59.044C87.2716 58.716 86.9156 58.552 86.4596 58.552C86.2036 58.552 85.9756 58.604 85.7756 58.708C85.5836 58.804 85.4196 58.932 85.2836 59.092C85.1476 59.252 85.0396 59.436 84.9596 59.644C84.8876 59.852 84.8396 60.064 84.8156 60.28H87.9116ZM95.0828 57.76V58.696H93.0548V64H91.9388V58.696H89.9108V57.76H95.0828ZM100.565 60.892C100.565 60.164 100.385 59.604 100.025 59.212C99.6654 58.82 99.1854 58.624 98.5854 58.624C98.2494 58.624 97.9854 58.636 97.7934 58.66C97.6094 58.684 97.4614 58.712 97.3494 58.744V62.68C97.4854 62.792 97.6814 62.9 97.9374 63.004C98.1934 63.108 98.4734 63.16 98.7774 63.16C99.0974 63.16 99.3694 63.104 99.5934 62.992C99.8254 62.872 100.013 62.712 100.157 62.512C100.301 62.304 100.405 62.064 100.469 61.792C100.533 61.512 100.565 61.212 100.565 60.892ZM101.729 60.892C101.729 61.364 101.665 61.8 101.537 62.2C101.417 62.6 101.237 62.944 100.997 63.232C100.757 63.52 100.461 63.744 100.109 63.904C99.7654 64.064 99.3694 64.144 98.9214 64.144C98.5614 64.144 98.2414 64.096 97.9614 64C97.6894 63.904 97.4854 63.812 97.3494 63.724V66.22H96.2334V57.952C96.4974 57.888 96.8254 57.82 97.2174 57.748C97.6174 57.668 98.0774 57.628 98.5974 57.628C99.0774 57.628 99.5094 57.704 99.8934 57.856C100.277 58.008 100.605 58.224 100.877 58.504C101.149 58.784 101.357 59.128 101.501 59.536C101.653 59.936 101.729 60.388 101.729 60.892ZM108.808 60.88C108.808 61.376 108.736 61.824 108.592 62.224C108.448 62.624 108.244 62.968 107.98 63.256C107.724 63.544 107.416 63.768 107.056 63.928C106.696 64.08 106.304 64.156 105.88 64.156C105.456 64.156 105.064 64.08 104.704 63.928C104.344 63.768 104.032 63.544 103.768 63.256C103.512 62.968 103.312 62.624 103.168 62.224C103.024 61.824 102.952 61.376 102.952 60.88C102.952 60.392 103.024 59.948 103.168 59.548C103.312 59.14 103.512 58.792 103.768 58.504C104.032 58.216 104.344 57.996 104.704 57.844C105.064 57.684 105.456 57.604 105.88 57.604C106.304 57.604 106.696 57.684 107.056 57.844C107.416 57.996 107.724 58.216 107.98 58.504C108.244 58.792 108.448 59.14 108.592 59.548C108.736 59.948 108.808 60.392 108.808 60.88ZM107.644 60.88C107.644 60.176 107.484 59.62 107.164 59.212C106.852 58.796 106.424 58.588 105.88 58.588C105.336 58.588 104.904 58.796 104.584 59.212C104.272 59.62 104.116 60.176 104.116 60.88C104.116 61.584 104.272 62.144 104.584 62.56C104.904 62.968 105.336 63.172 105.88 63.172C106.424 63.172 106.852 62.968 107.164 62.56C107.484 62.144 107.644 61.584 107.644 60.88ZM112.555 60.592L114.427 57.94L115.207 58.36L113.875 60.592L115.207 62.824L114.427 63.244L112.555 60.592ZM115.051 60.592L116.923 57.94L117.703 58.36L116.371 60.592L117.703 62.824L116.923 63.244L115.051 60.592ZM125.54 55.684V64H124.376V56.68H120.38V64H119.216V55.684H125.54ZM133.042 60.88C133.042 61.376 132.97 61.824 132.826 62.224C132.682 62.624 132.478 62.968 132.214 63.256C131.958 63.544 131.65 63.768 131.29 63.928C130.93 64.08 130.538 64.156 130.114 64.156C129.69 64.156 129.298 64.08 128.938 63.928C128.578 63.768 128.266 63.544 128.002 63.256C127.746 62.968 127.546 62.624 127.402 62.224C127.258 61.824 127.186 61.376 127.186 60.88C127.186 60.392 127.258 59.948 127.402 59.548C127.546 59.14 127.746 58.792 128.002 58.504C128.266 58.216 128.578 57.996 128.938 57.844C129.298 57.684 129.69 57.604 130.114 57.604C130.538 57.604 130.93 57.684 131.29 57.844C131.65 57.996 131.958 58.216 132.214 58.504C132.478 58.792 132.682 59.14 132.826 59.548C132.97 59.948 133.042 60.392 133.042 60.88ZM131.878 60.88C131.878 60.176 131.718 59.62 131.398 59.212C131.086 58.796 130.658 58.588 130.114 58.588C129.57 58.588 129.138 58.796 128.818 59.212C128.506 59.62 128.35 60.176 128.35 60.88C128.35 61.584 128.506 62.144 128.818 62.56C129.138 62.968 129.57 63.172 130.114 63.172C130.658 63.172 131.086 62.968 131.398 62.56C131.718 62.144 131.878 61.584 131.878 60.88ZM136.784 58.696C136.784 58.96 136.776 59.244 136.76 59.548C136.752 59.844 136.732 60.144 136.7 60.448C136.668 60.744 136.624 61.04 136.568 61.336C136.512 61.624 136.44 61.896 136.352 62.152C136.264 62.408 136.152 62.648 136.016 62.872C135.888 63.096 135.728 63.296 135.536 63.472C135.344 63.64 135.12 63.784 134.864 63.904C134.608 64.016 134.308 64.088 133.964 64.12L133.808 63.184C134.2 63.104 134.508 62.956 134.732 62.74C134.964 62.524 135.148 62.26 135.284 61.948C135.404 61.676 135.492 61.368 135.548 61.024C135.604 60.68 135.644 60.324 135.668 59.956C135.692 59.58 135.704 59.204 135.704 58.828C135.712 58.452 135.716 58.096 135.716 57.76H139.868V64H138.752V58.696H136.784ZM144.364 61.576C144.244 61.576 144.128 61.576 144.016 61.576C143.904 61.568 143.796 61.56 143.692 61.552C143.436 61.936 143.188 62.348 142.948 62.788C142.716 63.22 142.508 63.624 142.324 64H141.196C141.292 63.768 141.404 63.532 141.532 63.292C141.66 63.044 141.788 62.804 141.916 62.572C142.052 62.34 142.188 62.12 142.324 61.912C142.46 61.704 142.588 61.516 142.708 61.348C142.484 61.268 142.3 61.172 142.156 61.06C142.012 60.94 141.896 60.808 141.808 60.664C141.72 60.52 141.656 60.368 141.616 60.208C141.584 60.04 141.568 59.872 141.568 59.704C141.568 59.352 141.632 59.044 141.76 58.78C141.896 58.516 142.08 58.3 142.312 58.132C142.544 57.956 142.816 57.824 143.128 57.736C143.448 57.648 143.796 57.604 144.172 57.604C144.7 57.604 145.148 57.628 145.516 57.676C145.884 57.724 146.192 57.78 146.44 57.844V64H145.336V61.576H144.364ZM145.336 58.588C145.248 58.572 145.1 58.556 144.892 58.54C144.692 58.524 144.46 58.516 144.196 58.516C143.74 58.516 143.372 58.612 143.092 58.804C142.812 58.988 142.672 59.284 142.672 59.692C142.672 60.092 142.816 60.368 143.104 60.52C143.392 60.672 143.764 60.748 144.22 60.748H145.336V58.588ZM153.47 64H152.354V61.24H149.474V64H148.358V57.76H149.474V60.304H152.354V57.76H153.47V64ZM157.67 60.604C157.918 60.78 158.186 61.004 158.474 61.276C158.762 61.54 159.042 61.828 159.314 62.14C159.594 62.452 159.854 62.772 160.094 63.1C160.334 63.42 160.538 63.72 160.706 64H159.386C159.21 63.728 159.002 63.452 158.762 63.172C158.53 62.884 158.286 62.608 158.03 62.344C157.774 62.08 157.514 61.836 157.25 61.612C156.986 61.388 156.738 61.2 156.506 61.048V64H155.39V57.76H156.506V60.436C156.698 60.252 156.918 60.04 157.166 59.8C157.414 59.552 157.662 59.304 157.91 59.056C158.166 58.8 158.402 58.56 158.618 58.336C158.834 58.104 159.01 57.912 159.146 57.76H160.442C160.266 57.952 160.058 58.172 159.818 58.42C159.586 58.66 159.342 58.908 159.086 59.164C158.838 59.42 158.59 59.676 158.342 59.932C158.094 60.18 157.87 60.404 157.67 60.604ZM163.947 63.196C164.211 63.196 164.443 63.192 164.643 63.184C164.851 63.168 165.023 63.144 165.159 63.112V61.252C165.079 61.212 164.947 61.18 164.763 61.156C164.587 61.124 164.371 61.108 164.115 61.108C163.947 61.108 163.767 61.12 163.575 61.144C163.391 61.168 163.219 61.22 163.059 61.3C162.907 61.372 162.779 61.476 162.675 61.612C162.571 61.74 162.519 61.912 162.519 62.128C162.519 62.528 162.647 62.808 162.903 62.968C163.159 63.12 163.507 63.196 163.947 63.196ZM163.851 57.604C164.299 57.604 164.675 57.664 164.979 57.784C165.291 57.896 165.539 58.06 165.723 58.276C165.915 58.484 166.051 58.736 166.131 59.032C166.211 59.32 166.251 59.64 166.251 59.992V63.892C166.155 63.908 166.019 63.932 165.843 63.964C165.675 63.988 165.483 64.012 165.267 64.036C165.051 64.06 164.815 64.08 164.559 64.096C164.311 64.12 164.063 64.132 163.815 64.132C163.463 64.132 163.139 64.096 162.843 64.024C162.547 63.952 162.291 63.84 162.075 63.688C161.859 63.528 161.691 63.32 161.571 63.064C161.451 62.808 161.391 62.5 161.391 62.14C161.391 61.796 161.459 61.5 161.595 61.252C161.739 61.004 161.931 60.804 162.171 60.652C162.411 60.5 162.691 60.388 163.011 60.316C163.331 60.244 163.667 60.208 164.019 60.208C164.131 60.208 164.247 60.216 164.367 60.232C164.487 60.24 164.599 60.256 164.703 60.28C164.815 60.296 164.911 60.312 164.991 60.328C165.071 60.344 165.127 60.356 165.159 60.364V60.052C165.159 59.868 165.139 59.688 165.099 59.512C165.059 59.328 164.987 59.168 164.883 59.032C164.779 58.888 164.635 58.776 164.451 58.696C164.275 58.608 164.043 58.564 163.755 58.564C163.387 58.564 163.063 58.592 162.783 58.648C162.511 58.696 162.307 58.748 162.171 58.804L162.039 57.88C162.183 57.816 162.423 57.756 162.759 57.7C163.095 57.636 163.459 57.604 163.851 57.604ZM168.405 63.244L167.625 62.824L168.957 60.592L167.625 58.36L168.405 57.94L170.277 60.592L168.405 63.244ZM170.901 63.244L170.121 62.824L171.453 60.592L170.121 58.36L170.901 57.94L172.773 60.592L170.901 63.244ZM175.269 62.632C175.277 62.696 175.281 62.76 175.281 62.824C175.281 62.88 175.281 62.94 175.281 63.004C175.281 63.508 175.205 64.004 175.053 64.492C174.909 64.988 174.709 65.46 174.453 65.908L173.589 65.632C173.789 65.224 173.921 64.808 173.985 64.384C174.049 63.968 174.081 63.576 174.081 63.208C174.081 63.104 174.077 63.004 174.069 62.908C174.069 62.812 174.065 62.72 174.057 62.632H175.269ZM25.86 77.592L27.732 74.94L28.512 75.36L27.18 77.592L28.512 79.824L27.732 80.244L25.86 77.592ZM28.356 77.592L30.228 74.94L31.008 75.36L29.676 77.592L31.008 79.824L30.228 80.244L28.356 77.592ZM38.6763 72.684C38.4283 72.956 38.1483 73.26 37.8363 73.596C37.5243 73.924 37.1963 74.264 36.8523 74.616C36.5163 74.96 36.1803 75.3 35.8443 75.636C35.5083 75.972 35.1923 76.284 34.8963 76.572C35.2403 76.812 35.6043 77.108 35.9883 77.46C36.3723 77.812 36.7483 78.188 37.1163 78.588C37.4843 78.988 37.8283 79.396 38.1483 79.812C38.4763 80.228 38.7483 80.624 38.9643 81H37.5963C37.3563 80.624 37.0803 80.248 36.7683 79.872C36.4563 79.488 36.1243 79.124 35.7723 78.78C35.4283 78.428 35.0763 78.104 34.7163 77.808C34.3643 77.512 34.0203 77.26 33.6843 77.052V81H32.5203V72.684H33.6843V76.356C33.9643 76.092 34.2723 75.796 34.6083 75.468C34.9443 75.132 35.2763 74.796 35.6043 74.46C35.9323 74.124 36.2403 73.804 36.5283 73.5C36.8243 73.188 37.0723 72.916 37.2723 72.684H38.6763ZM44.3272 77.892C44.3272 77.164 44.1472 76.604 43.7872 76.212C43.4272 75.82 42.9472 75.624 42.3472 75.624C42.0112 75.624 41.7472 75.636 41.5552 75.66C41.3712 75.684 41.2232 75.712 41.1112 75.744V79.68C41.2472 79.792 41.4432 79.9 41.6992 80.004C41.9552 80.108 42.2352 80.16 42.5392 80.16C42.8592 80.16 43.1312 80.104 43.3552 79.992C43.5872 79.872 43.7752 79.712 43.9192 79.512C44.0632 79.304 44.1672 79.064 44.2312 78.792C44.2952 78.512 44.3272 78.212 44.3272 77.892ZM45.4912 77.892C45.4912 78.364 45.4272 78.8 45.2992 79.2C45.1792 79.6 44.9992 79.944 44.7592 80.232C44.5192 80.52 44.2232 80.744 43.8712 80.904C43.5272 81.064 43.1312 81.144 42.6832 81.144C42.3232 81.144 42.0032 81.096 41.7232 81C41.4512 80.904 41.2472 80.812 41.1112 80.724V83.22H39.9952V74.952C40.2592 74.888 40.5872 74.82 40.9792 74.748C41.3792 74.668 41.8392 74.628 42.3592 74.628C42.8392 74.628 43.2712 74.704 43.6552 74.856C44.0392 75.008 44.3672 75.224 44.6392 75.504C44.9112 75.784 45.1192 76.128 45.2632 76.536C45.4152 76.936 45.4912 77.388 45.4912 77.892ZM52.5696 77.88C52.5696 78.376 52.4976 78.824 52.3536 79.224C52.2096 79.624 52.0056 79.968 51.7416 80.256C51.4856 80.544 51.1776 80.768 50.8176 80.928C50.4576 81.08 50.0656 81.156 49.6416 81.156C49.2176 81.156 48.8256 81.08 48.4656 80.928C48.1056 80.768 47.7936 80.544 47.5296 80.256C47.2736 79.968 47.0736 79.624 46.9296 79.224C46.7856 78.824 46.7136 78.376 46.7136 77.88C46.7136 77.392 46.7856 76.948 46.9296 76.548C47.0736 76.14 47.2736 75.792 47.5296 75.504C47.7936 75.216 48.1056 74.996 48.4656 74.844C48.8256 74.684 49.2176 74.604 49.6416 74.604C50.0656 74.604 50.4576 74.684 50.8176 74.844C51.1776 74.996 51.4856 75.216 51.7416 75.504C52.0056 75.792 52.2096 76.14 52.3536 76.548C52.4976 76.948 52.5696 77.392 52.5696 77.88ZM51.4056 77.88C51.4056 77.176 51.2456 76.62 50.9256 76.212C50.6136 75.796 50.1856 75.588 49.6416 75.588C49.0976 75.588 48.6656 75.796 48.3456 76.212C48.0336 76.62 47.8776 77.176 47.8776 77.88C47.8776 78.584 48.0336 79.144 48.3456 79.56C48.6656 79.968 49.0976 80.172 49.6416 80.172C50.1856 80.172 50.6136 79.968 50.9256 79.56C51.2456 79.144 51.4056 78.584 51.4056 77.88ZM59.1557 81H58.0397V75.696H55.2557V81H54.1397V74.76H59.1557V81ZM66.5852 77.88C66.5852 78.376 66.5132 78.824 66.3692 79.224C66.2252 79.624 66.0212 79.968 65.7572 80.256C65.5012 80.544 65.1932 80.768 64.8332 80.928C64.4732 81.08 64.0812 81.156 63.6572 81.156C63.2332 81.156 62.8412 81.08 62.4812 80.928C62.1212 80.768 61.8092 80.544 61.5452 80.256C61.2892 79.968 61.0892 79.624 60.9452 79.224C60.8012 78.824 60.7292 78.376 60.7292 77.88C60.7292 77.392 60.8012 76.948 60.9452 76.548C61.0892 76.14 61.2892 75.792 61.5452 75.504C61.8092 75.216 62.1212 74.996 62.4812 74.844C62.8412 74.684 63.2332 74.604 63.6572 74.604C64.0812 74.604 64.4732 74.684 64.8332 74.844C65.1932 74.996 65.5012 75.216 65.7572 75.504C66.0212 75.792 66.2252 76.14 66.3692 76.548C66.5132 76.948 66.5852 77.392 66.5852 77.88ZM65.4212 77.88C65.4212 77.176 65.2612 76.62 64.9412 76.212C64.6292 75.796 64.2012 75.588 63.6572 75.588C63.1132 75.588 62.6812 75.796 62.3612 76.212C62.0492 76.62 61.8932 77.176 61.8932 77.88C61.8932 78.584 62.0492 79.144 62.3612 79.56C62.6812 79.968 63.1132 80.172 63.6572 80.172C64.2012 80.172 64.6292 79.968 64.9412 79.56C65.2612 79.144 65.4212 78.584 65.4212 77.88ZM72.5593 74.76V75.696H70.5313V81H69.4153V75.696H67.3873V74.76H72.5593ZM75.99 77.604C76.238 77.78 76.506 78.004 76.794 78.276C77.082 78.54 77.362 78.828 77.634 79.14C77.914 79.452 78.174 79.772 78.414 80.1C78.654 80.42 78.858 80.72 79.026 81H77.706C77.53 80.728 77.322 80.452 77.082 80.172C76.85 79.884 76.606 79.608 76.35 79.344C76.094 79.08 75.834 78.836 75.57 78.612C75.306 78.388 75.058 78.2 74.826 78.048V81H73.71V74.76H74.826V77.436C75.018 77.252 75.238 77.04 75.486 76.8C75.734 76.552 75.982 76.304 76.23 76.056C76.486 75.8 76.722 75.56 76.938 75.336C77.154 75.104 77.33 74.912 77.466 74.76H78.762C78.586 74.952 78.378 75.172 78.138 75.42C77.906 75.66 77.662 75.908 77.406 76.164C77.158 76.42 76.91 76.676 76.662 76.932C76.414 77.18 76.19 77.404 75.99 77.604ZM85.3993 74.76V81H84.3193V76.248C84.0793 76.552 83.8153 76.908 83.5273 77.316C83.2393 77.724 82.9513 78.148 82.6633 78.588C82.3753 79.02 82.0993 79.448 81.8353 79.872C81.5713 80.296 81.3433 80.672 81.1513 81H80.1553V74.76H81.2353V79.248C81.4433 78.904 81.6793 78.528 81.9433 78.12C82.2073 77.704 82.4793 77.296 82.7593 76.896C83.0473 76.488 83.3313 76.1 83.6113 75.732C83.8993 75.356 84.1673 75.032 84.4153 74.76H85.3993ZM92.4275 81H91.3115V78.24H88.4315V81H87.3155V74.76H88.4315V77.304H91.3115V74.76H92.4275V81ZM97.0587 81.144C96.5547 81.144 96.1107 81.064 95.7267 80.904C95.3507 80.744 95.0307 80.52 94.7667 80.232C94.5107 79.944 94.3187 79.604 94.1907 79.212C94.0627 78.812 93.9987 78.372 93.9987 77.892C93.9987 77.412 94.0667 76.972 94.2027 76.572C94.3467 76.172 94.5467 75.828 94.8027 75.54C95.0587 75.244 95.3707 75.016 95.7387 74.856C96.1147 74.688 96.5307 74.604 96.9867 74.604C97.2667 74.604 97.5467 74.628 97.8267 74.676C98.1067 74.724 98.3747 74.8 98.6307 74.904L98.3787 75.852C98.2107 75.772 98.0147 75.708 97.7907 75.66C97.5747 75.612 97.3427 75.588 97.0947 75.588C96.4707 75.588 95.9907 75.784 95.6547 76.176C95.3267 76.568 95.1627 77.14 95.1627 77.892C95.1627 78.228 95.1987 78.536 95.2707 78.816C95.3507 79.096 95.4707 79.336 95.6307 79.536C95.7987 79.736 96.0107 79.892 96.2667 80.004C96.5227 80.108 96.8347 80.16 97.2027 80.16C97.4987 80.16 97.7667 80.132 98.0067 80.076C98.2467 80.02 98.4347 79.96 98.5707 79.896L98.7267 80.832C98.6627 80.872 98.5707 80.912 98.4507 80.952C98.3307 80.984 98.1947 81.012 98.0427 81.036C97.8907 81.068 97.7267 81.092 97.5507 81.108C97.3827 81.132 97.2187 81.144 97.0587 81.144ZM102.205 77.604C102.453 77.78 102.721 78.004 103.009 78.276C103.297 78.54 103.577 78.828 103.849 79.14C104.129 79.452 104.389 79.772 104.629 80.1C104.869 80.42 105.073 80.72 105.241 81H103.921C103.745 80.728 103.537 80.452 103.297 80.172C103.065 79.884 102.821 79.608 102.565 79.344C102.309 79.08 102.049 78.836 101.785 78.612C101.521 78.388 101.273 78.2 101.041 78.048V81H99.9248V74.76H101.041V77.436C101.233 77.252 101.453 77.04 101.701 76.8C101.949 76.552 102.197 76.304 102.445 76.056C102.701 75.8 102.937 75.56 103.153 75.336C103.369 75.104 103.545 74.912 103.681 74.76H104.977C104.801 74.952 104.593 75.172 104.353 75.42C104.121 75.66 103.877 75.908 103.621 76.164C103.373 76.42 103.125 76.676 102.877 76.932C102.629 77.18 102.405 77.404 102.205 77.604ZM108.482 80.196C108.746 80.196 108.978 80.192 109.178 80.184C109.386 80.168 109.558 80.144 109.694 80.112V78.252C109.614 78.212 109.482 78.18 109.298 78.156C109.122 78.124 108.906 78.108 108.65 78.108C108.482 78.108 108.302 78.12 108.11 78.144C107.926 78.168 107.754 78.22 107.594 78.3C107.442 78.372 107.314 78.476 107.21 78.612C107.106 78.74 107.054 78.912 107.054 79.128C107.054 79.528 107.182 79.808 107.438 79.968C107.694 80.12 108.042 80.196 108.482 80.196ZM108.386 74.604C108.834 74.604 109.21 74.664 109.514 74.784C109.826 74.896 110.074 75.06 110.258 75.276C110.45 75.484 110.586 75.736 110.666 76.032C110.746 76.32 110.786 76.64 110.786 76.992V80.892C110.69 80.908 110.554 80.932 110.378 80.964C110.21 80.988 110.018 81.012 109.802 81.036C109.586 81.06 109.35 81.08 109.094 81.096C108.846 81.12 108.598 81.132 108.35 81.132C107.998 81.132 107.674 81.096 107.378 81.024C107.082 80.952 106.826 80.84 106.61 80.688C106.394 80.528 106.226 80.32 106.106 80.064C105.986 79.808 105.926 79.5 105.926 79.14C105.926 78.796 105.994 78.5 106.13 78.252C106.274 78.004 106.466 77.804 106.706 77.652C106.946 77.5 107.226 77.388 107.546 77.316C107.866 77.244 108.202 77.208 108.554 77.208C108.666 77.208 108.782 77.216 108.902 77.232C109.022 77.24 109.134 77.256 109.238 77.28C109.35 77.296 109.446 77.312 109.526 77.328C109.606 77.344 109.662 77.356 109.694 77.364V77.052C109.694 76.868 109.674 76.688 109.634 76.512C109.594 76.328 109.522 76.168 109.418 76.032C109.314 75.888 109.17 75.776 108.986 75.696C108.81 75.608 108.578 75.564 108.29 75.564C107.922 75.564 107.598 75.592 107.318 75.648C107.046 75.696 106.842 75.748 106.706 75.804L106.574 74.88C106.718 74.816 106.958 74.756 107.294 74.7C107.63 74.636 107.994 74.604 108.386 74.604ZM115.22 78.576C115.1 78.576 114.984 78.576 114.872 78.576C114.76 78.568 114.652 78.56 114.548 78.552C114.292 78.936 114.044 79.348 113.804 79.788C113.572 80.22 113.364 80.624 113.18 81H112.052C112.148 80.768 112.26 80.532 112.388 80.292C112.516 80.044 112.644 79.804 112.772 79.572C112.908 79.34 113.044 79.12 113.18 78.912C113.316 78.704 113.444 78.516 113.564 78.348C113.34 78.268 113.156 78.172 113.012 78.06C112.868 77.94 112.752 77.808 112.664 77.664C112.576 77.52 112.512 77.368 112.472 77.208C112.44 77.04 112.424 76.872 112.424 76.704C112.424 76.352 112.488 76.044 112.616 75.78C112.752 75.516 112.936 75.3 113.168 75.132C113.4 74.956 113.672 74.824 113.984 74.736C114.304 74.648 114.652 74.604 115.028 74.604C115.556 74.604 116.004 74.628 116.372 74.676C116.74 74.724 117.048 74.78 117.296 74.844V81H116.192V78.576H115.22ZM116.192 75.588C116.104 75.572 115.956 75.556 115.748 75.54C115.548 75.524 115.316 75.516 115.052 75.516C114.596 75.516 114.228 75.612 113.948 75.804C113.668 75.988 113.528 76.284 113.528 76.692C113.528 77.092 113.672 77.368 113.96 77.52C114.248 77.672 114.62 77.748 115.076 77.748H116.192V75.588ZM119.514 80.244L118.734 79.824L120.066 77.592L118.734 75.36L119.514 74.94L121.386 77.592L119.514 80.244ZM122.01 80.244L121.23 79.824L122.562 77.592L121.23 75.36L122.01 74.94L123.882 77.592L122.01 80.244ZM126.378 79.632C126.386 79.696 126.39 79.76 126.39 79.824C126.39 79.88 126.39 79.94 126.39 80.004C126.39 80.508 126.314 81.004 126.162 81.492C126.018 81.988 125.818 82.46 125.562 82.908L124.698 82.632C124.898 82.224 125.03 81.808 125.094 81.384C125.158 80.968 125.19 80.576 125.19 80.208C125.19 80.104 125.186 80.004 125.178 79.908C125.178 79.812 125.174 79.72 125.166 79.632H126.378ZM130.333 77.592L132.205 74.94L132.985 75.36L131.653 77.592L132.985 79.824L132.205 80.244L130.333 77.592ZM132.829 77.592L134.701 74.94L135.481 75.36L134.149 77.592L135.481 79.824L134.701 80.244L132.829 77.592ZM141.623 72.684V73.692H139.007V81H137.843V73.692H135.227V72.684H141.623ZM146.632 77.892C146.632 77.164 146.452 76.604 146.092 76.212C145.732 75.82 145.252 75.624 144.652 75.624C144.316 75.624 144.052 75.636 143.86 75.66C143.676 75.684 143.528 75.712 143.416 75.744V79.68C143.552 79.792 143.748 79.9 144.004 80.004C144.26 80.108 144.54 80.16 144.844 80.16C145.164 80.16 145.436 80.104 145.66 79.992C145.892 79.872 146.08 79.712 146.224 79.512C146.368 79.304 146.472 79.064 146.536 78.792C146.6 78.512 146.632 78.212 146.632 77.892ZM147.796 77.892C147.796 78.364 147.732 78.8 147.604 79.2C147.484 79.6 147.304 79.944 147.064 80.232C146.824 80.52 146.528 80.744 146.176 80.904C145.832 81.064 145.436 81.144 144.988 81.144C144.628 81.144 144.308 81.096 144.028 81C143.756 80.904 143.552 80.812 143.416 80.724V83.22H142.3V74.952C142.564 74.888 142.892 74.82 143.284 74.748C143.684 74.668 144.144 74.628 144.664 74.628C145.144 74.628 145.576 74.704 145.96 74.856C146.344 75.008 146.672 75.224 146.944 75.504C147.216 75.784 147.424 76.128 147.568 76.536C147.72 76.936 147.796 77.388 147.796 77.892ZM149.018 77.892C149.018 77.34 149.098 76.86 149.258 76.452C149.418 76.036 149.63 75.692 149.894 75.42C150.158 75.148 150.462 74.944 150.806 74.808C151.15 74.672 151.502 74.604 151.862 74.604C152.702 74.604 153.346 74.868 153.794 75.396C154.242 75.916 154.466 76.712 154.466 77.784C154.466 77.832 154.466 77.896 154.466 77.976C154.466 78.048 154.462 78.116 154.454 78.18H150.182C150.23 78.828 150.418 79.32 150.746 79.656C151.074 79.992 151.586 80.16 152.282 80.16C152.674 80.16 153.002 80.128 153.266 80.064C153.538 79.992 153.742 79.924 153.878 79.86L154.034 80.796C153.898 80.868 153.658 80.944 153.314 81.024C152.978 81.104 152.594 81.144 152.162 81.144C151.618 81.144 151.146 81.064 150.746 80.904C150.354 80.736 150.03 80.508 149.774 80.22C149.518 79.932 149.326 79.592 149.198 79.2C149.078 78.8 149.018 78.364 149.018 77.892ZM153.302 77.28C153.31 76.776 153.182 76.364 152.918 76.044C152.662 75.716 152.306 75.552 151.85 75.552C151.594 75.552 151.366 75.604 151.166 75.708C150.974 75.804 150.81 75.932 150.674 76.092C150.538 76.252 150.43 76.436 150.35 76.644C150.278 76.852 150.23 77.064 150.206 77.28H153.302ZM160.473 74.76V75.696H158.445V81H157.329V75.696H155.301V74.76H160.473ZM163.988 80.22C164.46 80.22 164.832 80.128 165.104 79.944C165.376 79.76 165.512 79.464 165.512 79.056C165.512 78.856 165.472 78.684 165.392 78.54C165.312 78.396 165.2 78.28 165.056 78.192C164.92 78.096 164.76 78.028 164.576 77.988C164.392 77.94 164.196 77.916 163.988 77.916C163.772 77.916 163.548 77.924 163.316 77.94C163.092 77.948 162.9 77.972 162.74 78.012V80.16C162.788 80.168 162.86 80.176 162.956 80.184C163.052 80.192 163.156 80.2 163.268 80.208C163.388 80.208 163.508 80.212 163.628 80.22C163.756 80.22 163.876 80.22 163.988 80.22ZM161.624 80.868V74.76H162.74V77.148C162.804 77.132 162.888 77.116 162.992 77.1C163.104 77.084 163.22 77.068 163.34 77.052C163.468 77.036 163.6 77.024 163.736 77.016C163.872 77.008 164 77.004 164.12 77.004C164.464 77.004 164.788 77.044 165.092 77.124C165.396 77.196 165.66 77.316 165.884 77.484C166.116 77.644 166.3 77.856 166.436 78.12C166.572 78.376 166.64 78.684 166.64 79.044C166.64 79.42 166.576 79.74 166.448 80.004C166.32 80.268 166.136 80.484 165.896 80.652C165.656 80.82 165.368 80.94 165.032 81.012C164.704 81.092 164.336 81.132 163.928 81.132C163.528 81.132 163.136 81.108 162.752 81.06C162.368 81.02 161.992 80.956 161.624 80.868ZM170.544 78.576C170.424 78.576 170.308 78.576 170.196 78.576C170.084 78.568 169.976 78.56 169.872 78.552C169.616 78.936 169.368 79.348 169.128 79.788C168.896 80.22 168.688 80.624 168.504 81H167.376C167.472 80.768 167.584 80.532 167.712 80.292C167.84 80.044 167.968 79.804 168.096 79.572C168.232 79.34 168.368 79.12 168.504 78.912C168.64 78.704 168.768 78.516 168.888 78.348C168.664 78.268 168.48 78.172 168.336 78.06C168.192 77.94 168.076 77.808 167.988 77.664C167.9 77.52 167.836 77.368 167.796 77.208C167.764 77.04 167.748 76.872 167.748 76.704C167.748 76.352 167.812 76.044 167.94 75.78C168.076 75.516 168.26 75.3 168.492 75.132C168.724 74.956 168.996 74.824 169.308 74.736C169.628 74.648 169.976 74.604 170.352 74.604C170.88 74.604 171.328 74.628 171.696 74.676C172.064 74.724 172.372 74.78 172.62 74.844V81H171.516V78.576H170.544ZM171.516 75.588C171.428 75.572 171.28 75.556 171.072 75.54C170.872 75.524 170.64 75.516 170.376 75.516C169.92 75.516 169.552 75.612 169.272 75.804C168.992 75.988 168.852 76.284 168.852 76.692C168.852 77.092 168.996 77.368 169.284 77.52C169.572 77.672 169.944 77.748 170.4 77.748H171.516V75.588ZM176.818 77.604C177.066 77.78 177.334 78.004 177.622 78.276C177.91 78.54 178.19 78.828 178.462 79.14C178.742 79.452 179.002 79.772 179.242 80.1C179.482 80.42 179.686 80.72 179.854 81H178.534C178.358 80.728 178.15 80.452 177.91 80.172C177.678 79.884 177.434 79.608 177.178 79.344C176.922 79.08 176.662 78.836 176.398 78.612C176.134 78.388 175.886 78.2 175.654 78.048V81H174.538V74.76H175.654V77.436C175.846 77.252 176.066 77.04 176.314 76.8C176.562 76.552 176.81 76.304 177.058 76.056C177.314 75.8 177.55 75.56 177.766 75.336C177.982 75.104 178.158 74.912 178.294 74.76H179.59C179.414 74.952 179.206 75.172 178.966 75.42C178.734 75.66 178.49 75.908 178.234 76.164C177.986 76.42 177.738 76.676 177.49 76.932C177.242 77.18 177.018 77.404 176.818 77.604ZM186.14 77.88C186.14 78.376 186.068 78.824 185.924 79.224C185.78 79.624 185.576 79.968 185.312 80.256C185.056 80.544 184.748 80.768 184.388 80.928C184.028 81.08 183.636 81.156 183.212 81.156C182.788 81.156 182.396 81.08 182.036 80.928C181.676 80.768 181.364 80.544 181.1 80.256C180.844 79.968 180.644 79.624 180.5 79.224C180.356 78.824 180.284 78.376 180.284 77.88C180.284 77.392 180.356 76.948 180.5 76.548C180.644 76.14 180.844 75.792 181.1 75.504C181.364 75.216 181.676 74.996 182.036 74.844C182.396 74.684 182.788 74.604 183.212 74.604C183.636 74.604 184.028 74.684 184.388 74.844C184.748 74.996 185.056 75.216 185.312 75.504C185.576 75.792 185.78 76.14 185.924 76.548C186.068 76.948 186.14 77.392 186.14 77.88ZM184.976 77.88C184.976 77.176 184.816 76.62 184.496 76.212C184.184 75.796 183.756 75.588 183.212 75.588C182.668 75.588 182.236 75.796 181.916 76.212C181.604 76.62 181.448 77.176 181.448 77.88C181.448 78.584 181.604 79.144 181.916 79.56C182.236 79.968 182.668 80.172 183.212 80.172C183.756 80.172 184.184 79.968 184.496 79.56C184.816 79.144 184.976 78.584 184.976 77.88ZM188.802 80.16C188.85 80.168 188.918 80.176 189.006 80.184C189.094 80.192 189.194 80.2 189.306 80.208C189.418 80.208 189.534 80.212 189.654 80.22C189.782 80.22 189.902 80.22 190.014 80.22C190.246 80.22 190.466 80.204 190.674 80.172C190.89 80.14 191.074 80.084 191.226 80.004C191.386 79.924 191.51 79.82 191.598 79.692C191.694 79.556 191.742 79.384 191.742 79.176C191.742 78.976 191.698 78.812 191.61 78.684C191.53 78.548 191.418 78.44 191.274 78.36C191.13 78.28 190.958 78.224 190.758 78.192C190.566 78.16 190.358 78.144 190.134 78.144H188.802V80.16ZM189.99 77.316C190.206 77.316 190.402 77.304 190.578 77.28C190.762 77.248 190.918 77.196 191.046 77.124C191.182 77.052 191.286 76.956 191.358 76.836C191.438 76.716 191.478 76.564 191.478 76.38C191.478 76.188 191.43 76.036 191.334 75.924C191.238 75.812 191.11 75.728 190.95 75.672C190.798 75.608 190.622 75.568 190.422 75.552C190.23 75.528 190.034 75.516 189.834 75.516C189.65 75.516 189.462 75.52 189.27 75.528C189.086 75.536 188.93 75.544 188.802 75.552V77.316H189.99ZM189.966 81.108C189.494 81.108 189.058 81.084 188.658 81.036C188.258 80.996 187.942 80.948 187.71 80.892V74.82C187.942 74.764 188.258 74.716 188.658 74.676C189.058 74.628 189.494 74.604 189.966 74.604C190.294 74.604 190.614 74.632 190.926 74.688C191.238 74.744 191.514 74.84 191.754 74.976C191.994 75.104 192.186 75.284 192.33 75.516C192.482 75.74 192.558 76.02 192.558 76.356C192.558 76.66 192.482 76.92 192.33 77.136C192.178 77.352 191.974 77.52 191.718 77.64C192.062 77.76 192.334 77.94 192.534 78.18C192.742 78.412 192.846 78.74 192.846 79.164C192.846 79.54 192.77 79.852 192.618 80.1C192.474 80.348 192.27 80.548 192.006 80.7C191.75 80.852 191.446 80.956 191.094 81.012C190.742 81.076 190.366 81.108 189.966 81.108ZM196.996 81.144C196.492 81.144 196.048 81.064 195.664 80.904C195.288 80.744 194.968 80.52 194.704 80.232C194.448 79.944 194.256 79.604 194.128 79.212C194 78.812 193.936 78.372 193.936 77.892C193.936 77.412 194.004 76.972 194.14 76.572C194.284 76.172 194.484 75.828 194.74 75.54C194.996 75.244 195.308 75.016 195.676 74.856C196.052 74.688 196.468 74.604 196.924 74.604C197.204 74.604 197.484 74.628 197.764 74.676C198.044 74.724 198.312 74.8 198.568 74.904L198.316 75.852C198.148 75.772 197.952 75.708 197.728 75.66C197.512 75.612 197.28 75.588 197.032 75.588C196.408 75.588 195.928 75.784 195.592 76.176C195.264 76.568 195.1 77.14 195.1 77.892C195.1 78.228 195.136 78.536 195.208 78.816C195.288 79.096 195.408 79.336 195.568 79.536C195.736 79.736 195.948 79.892 196.204 80.004C196.46 80.108 196.772 80.16 197.14 80.16C197.436 80.16 197.704 80.132 197.944 80.076C198.184 80.02 198.372 79.96 198.508 79.896L198.664 80.832C198.6 80.872 198.508 80.912 198.388 80.952C198.268 80.984 198.132 81.012 197.98 81.036C197.828 81.068 197.664 81.092 197.488 81.108C197.32 81.132 197.156 81.144 196.996 81.144ZM202.142 77.604C202.39 77.78 202.658 78.004 202.946 78.276C203.234 78.54 203.514 78.828 203.786 79.14C204.066 79.452 204.326 79.772 204.566 80.1C204.806 80.42 205.01 80.72 205.178 81H203.858C203.682 80.728 203.474 80.452 203.234 80.172C203.002 79.884 202.758 79.608 202.502 79.344C202.246 79.08 201.986 78.836 201.722 78.612C201.458 78.388 201.21 78.2 200.978 78.048V81H199.862V74.76H200.978V77.436C201.17 77.252 201.39 77.04 201.638 76.8C201.886 76.552 202.134 76.304 202.382 76.056C202.638 75.8 202.874 75.56 203.09 75.336C203.306 75.104 203.482 74.912 203.618 74.76H204.914C204.738 74.952 204.53 75.172 204.29 75.42C204.058 75.66 203.814 75.908 203.558 76.164C203.31 76.42 203.062 76.676 202.814 76.932C202.566 77.18 202.342 77.404 202.142 77.604ZM208.42 80.196C208.684 80.196 208.916 80.192 209.116 80.184C209.324 80.168 209.496 80.144 209.632 80.112V78.252C209.552 78.212 209.42 78.18 209.236 78.156C209.06 78.124 208.844 78.108 208.588 78.108C208.42 78.108 208.24 78.12 208.048 78.144C207.864 78.168 207.692 78.22 207.532 78.3C207.38 78.372 207.252 78.476 207.148 78.612C207.044 78.74 206.992 78.912 206.992 79.128C206.992 79.528 207.12 79.808 207.376 79.968C207.632 80.12 207.98 80.196 208.42 80.196ZM208.324 74.604C208.772 74.604 209.148 74.664 209.452 74.784C209.764 74.896 210.012 75.06 210.196 75.276C210.388 75.484 210.524 75.736 210.604 76.032C210.684 76.32 210.724 76.64 210.724 76.992V80.892C210.628 80.908 210.492 80.932 210.316 80.964C210.148 80.988 209.956 81.012 209.74 81.036C209.524 81.06 209.288 81.08 209.032 81.096C208.784 81.12 208.536 81.132 208.288 81.132C207.936 81.132 207.612 81.096 207.316 81.024C207.02 80.952 206.764 80.84 206.548 80.688C206.332 80.528 206.164 80.32 206.044 80.064C205.924 79.808 205.864 79.5 205.864 79.14C205.864 78.796 205.932 78.5 206.068 78.252C206.212 78.004 206.404 77.804 206.644 77.652C206.884 77.5 207.164 77.388 207.484 77.316C207.804 77.244 208.14 77.208 208.492 77.208C208.604 77.208 208.72 77.216 208.84 77.232C208.96 77.24 209.072 77.256 209.176 77.28C209.288 77.296 209.384 77.312 209.464 77.328C209.544 77.344 209.6 77.356 209.632 77.364V77.052C209.632 76.868 209.612 76.688 209.572 76.512C209.532 76.328 209.46 76.168 209.356 76.032C209.252 75.888 209.108 75.776 208.924 75.696C208.748 75.608 208.516 75.564 208.228 75.564C207.86 75.564 207.536 75.592 207.256 75.648C206.984 75.696 206.78 75.748 206.644 75.804L206.512 74.88C206.656 74.816 206.896 74.756 207.232 74.7C207.568 74.636 207.932 74.604 208.324 74.604ZM215.157 78.576C215.037 78.576 214.921 78.576 214.809 78.576C214.697 78.568 214.589 78.56 214.485 78.552C214.229 78.936 213.981 79.348 213.741 79.788C213.509 80.22 213.301 80.624 213.117 81H211.989C212.085 80.768 212.197 80.532 212.325 80.292C212.453 80.044 212.581 79.804 212.709 79.572C212.845 79.34 212.981 79.12 213.117 78.912C213.253 78.704 213.381 78.516 213.501 78.348C213.277 78.268 213.093 78.172 212.949 78.06C212.805 77.94 212.689 77.808 212.601 77.664C212.513 77.52 212.449 77.368 212.409 77.208C212.377 77.04 212.361 76.872 212.361 76.704C212.361 76.352 212.425 76.044 212.553 75.78C212.689 75.516 212.873 75.3 213.105 75.132C213.337 74.956 213.609 74.824 213.921 74.736C214.241 74.648 214.589 74.604 214.965 74.604C215.493 74.604 215.941 74.628 216.309 74.676C216.677 74.724 216.985 74.78 217.233 74.844V81H216.129V78.576H215.157ZM216.129 75.588C216.041 75.572 215.893 75.556 215.685 75.54C215.485 75.524 215.253 75.516 214.989 75.516C214.533 75.516 214.165 75.612 213.885 75.804C213.605 75.988 213.465 76.284 213.465 76.692C213.465 77.092 213.609 77.368 213.897 77.52C214.185 77.672 214.557 77.748 215.013 77.748H216.129V75.588ZM219.451 80.244L218.671 79.824L220.003 77.592L218.671 75.36L219.451 74.94L221.323 77.592L219.451 80.244ZM221.947 80.244L221.167 79.824L222.499 77.592L221.167 75.36L221.947 74.94L223.819 77.592L221.947 80.244Z" fill="#333333"/>
<path d="M71.6005 22.588C72.8405 22.588 73.7925 22.808 74.4565 23.248C75.1205 23.68 75.4525 24.392 75.4525 25.384C75.4525 26.384 75.1165 27.108 74.4445 27.556C73.7725 27.996 72.8125 28.216 71.5645 28.216H70.9765V31H69.1045V22.804C69.5125 22.724 69.9445 22.668 70.4005 22.636C70.8565 22.604 71.2565 22.588 71.6005 22.588ZM71.7205 24.184C71.5845 24.184 71.4485 24.188 71.3125 24.196C71.1845 24.204 71.0725 24.212 70.9765 24.22V26.62H71.5645C72.2125 26.62 72.7005 26.532 73.0285 26.356C73.3565 26.18 73.5205 25.852 73.5205 25.372C73.5205 25.14 73.4765 24.948 73.3885 24.796C73.3085 24.644 73.1885 24.524 73.0285 24.436C72.8765 24.34 72.6885 24.276 72.4645 24.244C72.2405 24.204 71.9925 24.184 71.7205 24.184Z" fill="#F2C94C"/>
<defs>
<filter id="filter0_d" x="0" y="0" width="280" height="122" filterUnits="userSpaceOnUse" color-interpolation-filters="sRGB">
<feFlood flood-opacity="0" result="BackgroundImageFix"/>
<feColorMatrix in="SourceAlpha" type="matrix" values="0 0 0 0 0 0 0 0 0 0 0 0 0 0 0 0 0 0 127 0"/>
<feOffset dy="5"/>
<feGaussianBlur stdDeviation="5"/>
<feColorMatrix type="matrix" values="0 0 0 0 0 0 0 0 0 0 0 0 0 0 0 0 0 0 0.13 0"/>
<feBlend mode="normal" in2="BackgroundImageFix" result="effect1_dropShadow"/>
<feBlend mode="normal" in="SourceGraphic" in2="effect1_dropShadow" result="shape"/>
</filter>
</defs>
</svg>
