<svg width="121" height="32" viewBox="0 0 121 32" fill="none" xmlns="http://www.w3.org/2000/svg">
<path d="M106.699 1.56445C108.889 1.56445 110.973 2.06484 112.843 2.95994C113.137 3.09188 113.432 3.24979 113.724 3.40783L112.442 4.5404L110.52 2.56537L107.207 5.46176L105.257 3.38118L99.1656 8.77965L103.065 13.0193L101.543 14.3356L105.39 18.5753L103.868 19.891L109.371 25.9214L112.628 22.972L115.462 26.1328C114.9 26.5542 114.286 26.9763 113.619 27.3444C111.588 28.4766 109.237 29.1336 106.726 29.1336C99.0048 29.1336 92.7279 22.9467 92.7279 15.3372C92.7006 7.77914 98.9786 1.56445 106.699 1.56445ZM104.134 14.4939L107.473 11.5445L110.466 14.836L107.126 17.7852L104.134 14.4939ZM106.512 20.182L109.824 17.2064L112.843 20.4977L109.504 23.4472L106.512 20.182ZM101.758 8.88533L105.096 5.9359L108.088 9.22739L104.749 12.1767L101.758 8.88533ZM107.874 7.30486L110.359 5.09303L112.603 7.54207L110.119 9.78003L107.874 7.30486ZM112.309 17.443L114.793 15.231L117.037 17.7056L114.553 19.9189L112.309 17.443ZM114.499 22.4203L116.984 20.208L119.227 22.6569L116.743 24.8946L114.499 22.4203ZM115.515 11.0441L117.171 9.56933L118.666 11.2026L117.011 12.6768L115.515 11.0441ZM113.378 6.17255L115.034 4.67192L116.53 6.3306L114.873 7.80525L113.378 6.17255ZM117.625 15.9161L119.281 14.4414L120.804 16.0741L119.121 17.5484L117.625 15.9161ZM110.172 12.2557L112.657 10.0437L114.9 12.4923L112.416 14.7046L110.172 12.2557Z" fill="#036CB5"/>
<mask id="mask0" mask-type="alpha" maskUnits="userSpaceOnUse" x="0" y="7" width="15" height="14">
<path d="M0.196289 7.29297V20.0211H14.7976V7.29297H0.196289Z" fill="white"/>
</mask>
<g mask="url(#mask0)">
<path d="M7.52396 11.0619H7.39796L5.03234 20.0211H3.09878L0.196289 7.29297H2.20247L4.20912 16.7903H4.33443L6.66303 7.29297H8.25801L10.7483 16.7903H10.8737L12.7014 7.29297H14.7976L11.8944 20.0211H9.95937L7.52396 11.0619Z" fill="#036CB5"/>
</g>
<path d="M17.3431 14.603H21.4449C21.3559 12.7186 20.4418 11.9653 19.4747 11.9653C18.3819 11.9653 17.5393 12.8088 17.3431 14.603ZM22.878 17.979V19.3436C22.072 19.8102 20.9976 20.1695 19.7069 20.1695C16.698 20.1695 15.4619 18.3025 15.4619 15.4663C15.4619 12.7365 16.8411 10.7617 19.5284 10.7617C21.7672 10.7617 23.1475 12.2168 23.1475 15.1423V15.8066H17.3072C17.3072 17.9602 18.1845 18.9119 20.0305 18.9119C20.9976 18.9119 21.8934 18.5703 22.878 17.979Z" fill="#036CB5"/>
<path d="M27.3142 18.7296C27.8876 18.9809 28.5151 19.0181 28.9637 19.0181C30.2891 19.0181 31.2913 18.1911 31.2913 15.2836C31.2913 13.0037 30.4673 12.2676 29.2675 12.2676C28.5503 12.2676 28.031 12.4657 27.3142 12.8599V18.7296H27.3142ZM27.333 11.5318C27.8692 11.2455 28.7827 10.8672 29.7505 10.8672C31.9722 10.8672 33.1727 12.411 33.1727 15.2836C33.1727 18.6409 31.56 20.2745 28.9637 20.2745C28.0135 20.2745 26.5445 19.9692 25.469 19.3935V6.86418L27.3331 6.41602V11.5318H27.333Z" fill="#036CB5"/>
<path d="M41.2362 17.3204H41.326L45.159 7.28516H47.3817V20.0142H45.4469V10.7861H45.2854L41.6301 20.0142H40.4846L36.8286 11.0018H36.6679V20.0142H35.0554V7.28516H37.2238L41.2362 17.3204Z" fill="#036CB5"/>
<path d="M55.2862 15.4658C55.2862 13.0425 54.3016 12.0197 53.0834 12.0197C51.9014 12.0197 50.8794 13.0425 50.8794 15.4658C50.8794 17.9255 51.8121 18.9119 53.0834 18.9119C54.3547 18.9119 55.2862 17.9255 55.2862 15.4658ZM48.999 15.4658C48.999 12.3231 50.7193 10.7617 53.0834 10.7617C55.449 10.7617 57.1683 12.323 57.1683 15.4658C57.1683 18.535 55.5382 20.1695 53.0834 20.1695C50.6292 20.1695 48.999 18.535 48.999 15.4658Z" fill="#036CB5"/>
<path d="M58.5857 12.0912C59.3918 11.6057 61.0945 10.7617 63.1542 10.7617C65.3038 10.7617 66.1086 11.6057 66.1086 13.4543V19.9539H64.2467V13.8677C64.2467 12.4498 63.5492 12.1985 62.6344 12.1985C61.9186 12.1985 61.0038 12.5221 60.4489 12.8452V19.9539H58.5857V12.0912H58.5857Z" fill="#036CB5"/>
<path d="M70.052 14.603H74.1542C74.066 12.7186 73.1513 11.9653 72.1839 11.9653C71.0908 11.9653 70.2499 12.8088 70.052 14.603ZM75.587 17.979V19.3436C74.7813 19.8102 73.7064 20.1695 72.4163 20.1695C69.4083 20.1695 68.1714 18.3025 68.1714 15.4663C68.1714 12.7365 69.5501 10.7617 72.2376 10.7617C74.4778 10.7617 75.8578 12.2168 75.8578 15.1423V15.8066H70.0168C70.0168 17.9602 70.8947 18.9119 72.74 18.9119C73.7064 18.9119 74.6035 18.5703 75.587 17.979Z" fill="#036CB5"/>
<path d="M83.2991 10.7617H85.2165L81.9736 19.7366C81.0766 22.2142 79.9851 23.5069 77.9252 23.5069V22.0358C79.1442 22.0358 79.8954 21.0659 80.3264 19.7366L76.8865 10.7617H78.8575L81.1504 17.368H81.2579L83.2991 10.7617Z" fill="#036CB5"/>
<path d="M19.5471 28.2959V27.5207C20.2114 27.857 20.8436 28.0259 21.4426 28.0259C21.9414 28.0259 22.3237 27.9347 22.5907 27.7505C22.8578 27.5676 22.9915 27.3203 22.9915 27.0076C22.9915 26.6951 22.8817 26.4606 22.662 26.3046C22.4428 26.1489 22.0331 25.956 21.4338 25.7275C21.2259 25.6496 21.093 25.5988 21.033 25.5746C20.974 25.5511 20.8582 25.5025 20.6859 25.4307C20.514 25.359 20.4013 25.3045 20.3481 25.2687C20.2945 25.2316 20.2043 25.1773 20.0765 25.1062C19.949 25.0334 19.8631 24.9693 19.8183 24.9132C19.7743 24.8555 19.7131 24.7826 19.6359 24.6957C19.5589 24.609 19.5068 24.5229 19.48 24.4351C19.4535 24.3481 19.4279 24.2475 19.4045 24.1331C19.381 24.0185 19.3689 23.8957 19.3689 23.7635C19.3689 23.2528 19.5575 22.8423 19.934 22.5295C20.3111 22.2178 20.8314 22.0615 21.4962 22.0615C22.0834 22.0615 22.6683 22.1694 23.2493 22.3858V23.2052C22.6857 22.9284 22.1221 22.7915 21.5583 22.7915C21.1608 22.7915 20.8641 22.8742 20.6683 23.0422C20.4725 23.2102 20.3745 23.4325 20.3745 23.7092C20.3745 24.0037 20.4725 24.227 20.6683 24.3805C20.8641 24.5346 21.2144 24.7043 21.7189 24.8899C22.5848 25.2084 23.1813 25.4966 23.5074 25.7552C23.834 26.0127 23.9971 26.3982 23.9971 26.9081C23.9971 27.4432 23.7731 27.8805 23.3251 28.2199C22.8771 28.5592 22.2617 28.729 21.4782 28.729C20.7606 28.729 20.1167 28.5841 19.5471 28.2959ZM28.603 28.5926H27.7576L27.6951 28.07C27.1845 28.491 26.6745 28.7015 26.1642 28.7015C25.7372 28.7015 25.4063 28.5862 25.1721 28.3543C24.9373 28.1231 24.8203 27.8311 24.8203 27.4757C24.8203 27.2892 24.8543 27.1111 24.9226 26.9398C24.991 26.7683 25.1038 26.6022 25.2608 26.4401C25.418 26.2777 25.6553 26.1474 25.9726 26.0478C26.29 25.9482 26.6715 25.8989 27.1166 25.8989H27.6686V25.6557C27.6686 25.2534 27.5944 24.9794 27.446 24.8314C27.2973 24.6842 27.0482 24.6106 26.6983 24.6106C26.2711 24.6106 25.7459 24.787 25.1231 25.1424V24.4217C25.764 24.1275 26.3926 23.9791 27.0096 23.9791C27.6087 23.9791 28.0245 24.103 28.2555 24.3498C28.4872 24.5955 28.603 24.9684 28.603 25.4658V28.5926V28.5926ZM27.6775 26.5294H27.2054C26.2322 26.5294 25.7459 26.821 25.7459 27.4038C25.7459 27.6088 25.8109 27.7559 25.9416 27.8495C26.0724 27.9429 26.2356 27.989 26.4316 27.989C26.6802 27.989 26.9208 27.9288 27.1522 27.8084C27.3835 27.689 27.5588 27.5509 27.6775 27.3947V26.5294H27.6775ZM30.0492 30.3952V24.6383C30.3104 24.4395 30.6185 24.2796 30.9748 24.1597C31.331 24.0405 31.6805 23.9791 32.0252 23.9791C33.2589 23.9791 33.8763 24.7334 33.8763 26.2417C33.8763 27.0225 33.7161 27.6202 33.3955 28.0339C33.0752 28.4489 32.6158 28.6552 32.016 28.6552C31.6005 28.6552 31.2534 28.55 30.9748 28.3411V30.3952H30.0492ZM30.9659 24.9435V27.6746C31.0846 27.7883 31.2342 27.8729 31.4152 27.9303C31.5963 27.9873 31.7552 28.0158 31.8915 28.0158C32.2176 28.0158 32.4746 27.8889 32.6615 27.6336C32.8484 27.3778 32.9414 26.914 32.9414 26.2417C32.9414 25.6951 32.8456 25.2945 32.6527 25.0436C32.4598 24.7904 32.2089 24.6649 31.9003 24.6649C31.5507 24.6649 31.2392 24.7575 30.9659 24.9435ZM35.9991 24.0255V28.5926H35.0735V24.2503L35.9991 24.0255ZM34.9309 22.7003C34.9309 22.5381 34.9917 22.3959 35.1132 22.2721C35.2352 22.149 35.3761 22.0872 35.5358 22.0872C35.6964 22.0872 35.8373 22.149 35.9592 22.2721C36.0808 22.3959 36.1415 22.5381 36.1415 22.7003C36.1415 22.8624 36.0808 23.0056 35.9592 23.1292C35.8373 23.2511 35.6964 23.3129 35.5358 23.3129C35.3762 23.3129 35.2352 23.2511 35.1132 23.1292C34.9917 23.0056 34.9309 22.8624 34.9309 22.7003ZM39.4656 28.07C39.8931 28.07 40.3643 27.9138 40.8807 27.602V28.2867C40.4062 28.5634 39.881 28.7015 39.3055 28.7015C38.5816 28.7015 38.0492 28.4941 37.7081 28.0795C37.3668 27.6646 37.1962 27.0854 37.1962 26.3405C37.1962 25.6314 37.3714 25.0602 37.721 24.6291C38.0715 24.1966 38.5695 23.9791 39.2162 23.9791C39.7863 23.9791 40.2277 24.1659 40.5429 24.5387C40.8573 24.9117 41.0141 25.4575 41.0141 26.1781V26.512H38.1129C38.1129 27.0468 38.2228 27.4407 38.442 27.6915C38.6617 27.9448 39.0029 28.07 39.4656 28.07ZM39.1894 24.5838C38.911 24.5838 38.6763 24.6951 38.4864 24.9165C38.2969 25.1391 38.1779 25.4701 38.1306 25.9073H40.1686C40.1447 25.4634 40.0412 25.1324 39.8571 24.9132C39.6735 24.6934 39.4509 24.5838 39.1894 24.5838ZM42.1932 28.5926V24.6467C42.923 24.2019 43.6796 23.9791 44.4631 23.9791C44.9912 23.9791 45.3677 24.0881 45.5932 24.3045C45.8187 24.5209 45.9314 24.863 45.9314 25.3311V28.5926H45.006V25.5385C45.006 25.2084 44.9376 24.9858 44.8013 24.8723C44.6647 24.7575 44.4661 24.7009 44.2048 24.7009C43.849 24.7009 43.4869 24.8094 43.1192 25.0254V28.5926H42.1932V28.5926ZM48.2588 24.1966H49.6651L49.4425 24.8094H48.2588V27.1874C48.2588 27.7883 48.514 28.0885 49.0241 28.0885C49.2199 28.0885 49.4186 28.0468 49.6211 27.9624V28.5386C49.342 28.647 49.0095 28.7015 48.6239 28.7015C48.1788 28.7015 47.8525 28.5736 47.6447 28.3175C47.4372 28.0633 47.3332 27.7281 47.3332 27.3126V23.6014L48.2588 22.9249V24.1966H48.2588ZM51.4768 24.0255V28.5926H50.5509V24.2503L51.4768 24.0255ZM50.4087 22.7003C50.4087 22.5381 50.4696 22.3959 50.5905 22.2721C50.7121 22.149 50.853 22.0872 51.0137 22.0872C51.1737 22.0872 51.315 22.149 51.4362 22.2721C51.5581 22.3959 51.6189 22.5381 51.6189 22.7003C51.6189 22.8624 51.5581 23.0056 51.4362 23.1292C51.315 23.2511 51.1737 23.3129 51.0137 23.3129C50.853 23.3129 50.7121 23.2511 50.5905 23.1292C50.4696 23.0056 50.4087 22.8624 50.4087 22.7003ZM57.7779 24.3403V25.0602C57.3327 24.7602 56.8817 24.6106 56.4252 24.6106C56.1938 24.6106 56.004 24.6556 55.8552 24.746C55.7071 24.8354 55.6329 24.9802 55.6329 25.1774C55.6329 25.3647 55.7142 25.5129 55.8774 25.6239C56.0407 25.7353 56.2974 25.848 56.6478 25.9613C56.8436 26.0275 56.9901 26.0789 57.0878 26.1147C57.1861 26.1516 57.3148 26.2118 57.4753 26.2953C57.6353 26.3798 57.7557 26.4631 57.8357 26.5478C57.9158 26.6322 57.9884 26.7426 58.0539 26.8813C58.1191 27.0194 58.1514 27.1721 58.1514 27.3404C58.1514 27.7552 57.9867 28.0854 57.6579 28.3317C57.3285 28.578 56.8876 28.7016 56.3362 28.7016C55.7189 28.7016 55.2053 28.5694 54.7962 28.3042V27.6021C55.3182 27.9138 55.7959 28.0701 56.2295 28.0701C56.8817 28.0701 57.2082 27.8545 57.2082 27.4215C57.2082 27.3378 57.1889 27.259 57.1503 27.1874C57.1117 27.1154 57.0673 27.0568 57.017 27.0116C56.9663 26.9666 56.8846 26.9157 56.7718 26.8578C56.659 26.8019 56.5644 26.76 56.4871 26.7325C56.4101 26.7057 56.2885 26.6621 56.1225 26.6022C55.879 26.512 55.6862 26.4342 55.5437 26.3678C55.4011 26.3012 55.2591 26.2159 55.1166 26.1111C54.974 26.006 54.87 25.8805 54.8052 25.7368C54.74 25.5931 54.7073 25.4214 54.7073 25.2234C54.7073 24.9711 54.7665 24.7554 54.8852 24.5757C55.0038 24.3942 55.1584 24.2652 55.3478 24.1874C55.5377 24.109 55.7113 24.0546 55.8685 24.0255C56.026 23.9945 56.1816 23.9791 56.3362 23.9791C56.8407 23.9791 57.3211 24.0996 57.7779 24.3403ZM62.695 28.5926H61.8497L61.7871 28.07C61.2765 28.491 60.7667 28.7015 60.2566 28.7015C59.8294 28.7015 59.4986 28.5862 59.2642 28.3543C59.0295 28.1231 58.9126 27.8311 58.9126 27.4757C58.9126 27.2892 58.9466 27.1111 59.015 26.9398C59.0832 26.7683 59.196 26.6022 59.3532 26.4401C59.5108 26.2777 59.7476 26.1474 60.065 26.0478C60.3826 25.9482 60.764 25.8989 61.2084 25.8989H61.7609V25.6557C61.7609 25.2534 61.6863 24.9794 61.5387 24.8314C61.3894 24.6842 61.1404 24.6106 60.7909 24.6106C60.3634 24.6106 59.8381 24.787 59.2153 25.1424V24.4217C59.8563 24.1275 60.4849 23.9791 61.1019 23.9791C61.7015 23.9791 62.1163 24.103 62.3478 24.3498C62.5792 24.5955 62.695 24.9684 62.695 25.4658V28.5926H62.695ZM61.7702 26.5294H61.298C60.3248 26.5294 59.8381 26.821 59.8381 27.4038C59.8381 27.6088 59.9035 27.7559 60.0339 27.8495C60.1647 27.9429 60.3273 27.989 60.5236 27.989C60.7725 27.989 61.0122 27.9288 61.2445 27.8084C61.4758 27.689 61.6512 27.5509 61.7702 27.3947V26.5294H61.7702ZM65.0229 24.1966H66.429L66.2059 24.8094H65.0229V27.1874C65.0229 27.7883 65.2778 28.0885 65.7875 28.0885C65.9835 28.0885 66.1817 28.0468 66.3843 27.9624V28.5386C66.1053 28.647 65.7735 28.7015 65.3867 28.7015C64.9424 28.7015 64.6162 28.5736 64.4085 28.3175C64.2007 28.0633 64.0964 27.7281 64.0964 27.3126V23.6014L65.0229 22.9249V24.1966H65.0229Z" fill="#B6B6B6"/>
</svg>
