<svg id="Слой_1" xmlns="http://www.w3.org/2000/svg" viewBox="0 0 48 48"><style>.st0{fill:#2d9cdb}.st1{fill:#f2c94c}</style><switch><g id="practice"><circle class="st0" cx="24" cy="33.2" r=".8"/><path class="st0" d="M11.2 11.6h5.6v1.6h-5.6z"/><path class="st1" d="M18.4 11.6h12v1.6h-12zM32 11.6h11.2v1.6H32zM14.4 18H20v1.6h-5.6z"/><path class="st0" d="M21.6 18h12v1.6h-12zM35.2 18h5.6v1.6h-5.6zM36.8 21.2h6.4v1.6h-6.4z"/><path class="st1" d="M11.2 24.4h5.6V26h-5.6z"/><path class="st0" d="M18.4 24.4h12V26h-12z"/><path class="st1" d="M32 24.4h8.8V26H32z"/><path class="st0" d="M11.2 14.8h11.2v1.6H11.2z"/><path class="st1" d="M24 14.8h13.6v1.6H24z"/><path class="st0" d="M14.4 21.2h11.2v1.6H14.4z"/><path class="st1" d="M27.2 21.2h8v1.6h-8z"/><path class="st0" d="M44.8.4H3.2C1.4.4 0 1.8 0 3.6V34c0 1.8 1.4 3.2 3.2 3.2h14.7L16.5 42H15a3 3 0 0 0-3 3v2.5h24V45a3 3 0 0 0-3-3h-1.4l-1.4-4.8h14.7c1.8 0 3.2-1.4 3.2-3.2V3.6A3.3 3.3 0 0 0 44.8.4zm-43.2 8h4.8v20.8H1.6V8.4zM33 43.6c.8 0 1.5.7 1.5 1.5v1H13.6v-1c0-.8.7-1.5 1.5-1.5H33zM29.9 42H18.1l1.4-4.8h8.9l1.5 4.8zm16.5-8c0 .9-.7 1.6-1.6 1.6H3.2c-.9 0-1.6-.7-1.6-1.6v-3.2h44.8V34zm0-4.8H8V8.4h38.4v20.8zM1.6 6.8V3.6c0-.9.7-1.6 1.6-1.6h41.6c.9 0 1.6.7 1.6 1.6v3.2H1.6z"/><path class="st0" d="M4 3.6c-.4 0-.8.4-.8.8s.4.8.8.8.8-.4.8-.8-.4-.8-.8-.8zM6.4 3.6c-.4 0-.8.4-.8.8s.4.8.8.8.8-.4.8-.8-.4-.8-.8-.8zM8.8 3.6c-.4 0-.8.4-.8.8s.4.8.8.8.8-.4.8-.8-.4-.8-.8-.8zM3.2 24.4h1.6V26H3.2zM3.2 21.2h1.6v1.6H3.2zM3.2 18h1.6v1.6H3.2zM3.2 14.8h1.6v1.6H3.2zM3.2 11.6h1.6v1.6H3.2z"/></g></switch></svg>