<svg id="Слой_1" xmlns="http://www.w3.org/2000/svg" viewBox="0 0 48 48"><style>.st0{fill:#2d9cdb}</style><switch><g id="task"><path d="M48 23.6c0-6.6-5.4-12-12-12s-12 5.4-12 12c0 4.6 2.6 8.6 6.4 10.6v3h-1.6v1.6h1.6v1.6c0 .9.7 1.6 1.6 1.6h.8v1.6c0 .9.7 1.6 1.6 1.6h3.2c.9 0 1.6-.7 1.6-1.6V42h.8c.9 0 1.6-.7 1.6-1.6v-1.6h1.6v-1.6h-1.6v-3c3.8-2 6.4-6 6.4-10.6zm-10.4 20h-3.2V42h3.2v1.6zm2.4-3.2h-8v-1.6h8v1.6zm.9-7.6l-.9.4v4h-3.2V24H40c1.5 0 2.8-1.3 2.8-2.8s-1.3-2.8-2.8-2.8-2.8 1.3-2.8 2.8h1.6c0-.7.5-1.2 1.2-1.2s1.2.5 1.2 1.2-.5 1.2-1.2 1.2h-8c-.7 0-1.2-.5-1.2-1.2S31.3 20 32 20s1.2.5 1.2 1.2h1.6c0-1.5-1.3-2.8-2.8-2.8s-2.8 1.3-2.8 2.8S30.5 24 32 24h3.2v13.2H32v-4l-.9-.5c-3.4-1.8-5.5-5.3-5.5-9.2 0-5.7 4.7-10.4 10.4-10.4s10.4 4.7 10.4 10.4c0 4-2.1 7.5-5.5 9.3z" fill="#f2c94c"/><path class="st0" d="M44.8 2.8H3.2C1.4 2.8 0 4.2 0 6v25c0 1.8 1.4 3.2 3.2 3.2h3.2v7c0 .7.9 1.1 1.4.6l8.1-7.6h6.5v-1.6h-7.1l-.5.4L8 39.5V32.7H3.2c-.9 0-1.6-.7-1.6-1.6V6c0-.9.7-1.6 1.6-1.6h41.6c.9 0 1.6.7 1.6 1.6v7.7H48V6c0-1.8-1.4-3.2-3.2-3.2z"/><path class="st0" d="M11.2 7.6h1.6v1.6h-1.6zM8 7.6h1.6v1.6H8zM4.8 7.6h1.6v1.6H4.8zM4.8 11.6H20v1.6H4.8zM4.8 15.6h17.6v1.6H4.8zM4.8 19.6h12.8v1.6H4.8zM4.8 23.6H20v1.6H4.8zM4.8 27.6H12v1.6H4.8z"/></g></switch></svg>