<svg id="Слой_1" xmlns="http://www.w3.org/2000/svg" viewBox="0 0 48 48"><style>.st1{fill:#f2c94c}</style><switch><g id="review"><path class="st1" d="M8 15.6h7.2c.9 0 1.6-.7 1.6-1.6V9.7l2.9-2.2-1-1.3-1.9 1.5v-.9c0-.9-.7-1.6-1.6-1.6H8c-.9 0-1.6.7-1.6 1.6V14c0 .9.7 1.6 1.6 1.6zm0-8.8h7.2v2.1l-3.1 2.4-1.9-1.9L9 10.6l2.9 2.9 3.3-2.5v3H8V6.8zM18.7 33.4l-1.9 1.5V34c0-.9-.7-1.6-1.6-1.6H8c-.9 0-1.6.7-1.6 1.6v7.2c0 .9.7 1.6 1.6 1.6h7.2c.9 0 1.6-.7 1.6-1.6v-4.3l2.9-2.2-1-1.3zm-3.5 7.8H8V34h7.2v2.1l-3.1 2.4-1.9-1.9L9 37.8l2.9 2.9 3.3-2.5v3zM16.8 21.3v-.9c0-.9-.7-1.6-1.6-1.6H8c-.9 0-1.6.7-1.6 1.6v7.2c0 .9.7 1.6 1.6 1.6h7.2c.9 0 1.6-.7 1.6-1.6v-4.3l2.9-2.2-1-1.3-1.9 1.5zm-1.6 6.3H8v-7.2h7.2v2.1l-3.1 2.4-1.9-1.9L9 24.2l2.9 2.9 3.3-2.5v3z"/><path d="M44.8 23.6H40V12.5c0-.6-.2-1.2-.7-1.6L29.4 1c-.4-.4-.9-.6-1.5-.6H4.8C3 .4 1.6 1.8 1.6 3.6v40.8c0 1.8 1.4 3.2 3.2 3.2h32c1.8 0 3.2-1.4 3.2-3.2V38h4.8c.9 0 1.6-.7 1.6-1.6V25.2c0-.9-.7-1.6-1.6-1.6zm-7.1-12H30c-.7 0-1.3-.6-1.3-1.3V2.7l9 8.9zm.7 32.8c0 .9-.7 1.6-1.6 1.6h-32c-.9 0-1.6-.7-1.6-1.6V3.6c0-.9.7-1.6 1.6-1.6h22.4v8.3c0 1.6 1.3 2.9 2.8 2.9h8.4v10.4c-.9 0-1.6.7-1.6 1.5-1.1-.7-2.4-1.6-2.7-2.2-1.2-2.2-1.7-4.2-1.9-5.5-.1-.6-.6-1.1-1.2-1.1-2.1 0-3.8 2-3.6 4.4 0 0 .3 2 .9 3.8h-5c-1.6 0-2.8 1.4-2.5 3l1.6 7.5a2.9 2.9 0 0 0 2.9 2.3h9.4c.5 0 .9-.1 1.3-.3l.7-.4c.1.8.8 1.4 1.6 1.4v6.4zM29.8 24c-.5-1.5-.8-3.1-.9-3.4 0-.7.2-1.5.7-2 .3-.3.7-.5 1.1-.6.3 2 1 3.9 2 5.8.5.9 2.4 2.2 4.1 3.3v7.7l-1.5.8c-.2.1-.3.1-.5.1h-9.4c-.6 0-1.2-.4-1.3-1.1l-1.6-7.5c-.1-.3.1-.6.2-.7.1-.1.3-.3.7-.3h7.3l-.9-2.1zm15 12.4h-6.4V25.2h6.4v11.2z" fill="#2d9cdb"/></g></switch></svg>