<svg id="Слой_1" xmlns="http://www.w3.org/2000/svg" viewBox="0 0 48 48"><style>.st0{fill:#2d9cdb}.st1{fill:#f2c94c}</style><switch><g id="group"><path class="st1" d="M43.2 32c1.3 0 2.4 1.1 2.4 2.4 0 1.3-1.1 2.4-2.4 2.4-1.3 0-2.4-1.1-2.4-2.4 0-1.3 1.1-2.4 2.4-2.4m0-1.6c-2.2 0-4 1.8-4 4s1.8 4 4 4 4-1.8 4-4-1.8-4-4-4z"/><path class="st0" d="M43.2 40.8c1.8 0 3.2 1.4 3.2 3.2v2.4H40V44c0-1.8 1.4-3.2 3.2-3.2m0-1.6c-2.7 0-4.8 2.1-4.8 4.8v4H48v-4c0-2.7-2.1-4.8-4.8-4.8z"/><path class="st1" d="M31.2 32c1.3 0 2.4 1.1 2.4 2.4 0 1.3-1.1 2.4-2.4 2.4-1.3 0-2.4-1.1-2.4-2.4 0-1.3 1.1-2.4 2.4-2.4m0-1.6c-2.2 0-4 1.8-4 4s1.8 4 4 4 4-1.8 4-4-1.8-4-4-4z"/><path class="st0" d="M31.2 40.8c1.8 0 3.2 1.4 3.2 3.2v2.4H28V44c0-1.8 1.4-3.2 3.2-3.2m0-1.6c-2.7 0-4.8 2.1-4.8 4.8v4H36v-4c0-2.7-2.1-4.8-4.8-4.8z"/><path class="st1" d="M19.2 32c1.3 0 2.4 1.1 2.4 2.4 0 1.3-1.1 2.4-2.4 2.4-1.3 0-2.4-1.1-2.4-2.4 0-1.3 1.1-2.4 2.4-2.4m0-1.6c-2.2 0-4 1.8-4 4s1.8 4 4 4 4-1.8 4-4-1.8-4-4-4z"/><path class="st0" d="M19.2 40.8c1.8 0 3.2 1.4 3.2 3.2v2.4H16V44c0-1.8 1.4-3.2 3.2-3.2m0-1.6c-2.7 0-4.8 2.1-4.8 4.8v4H24v-4c0-2.7-2.1-4.8-4.8-4.8z"/><path class="st1" d="M7.2 8c1.8 0 3.2 1.4 3.2 3.2S9 14.4 7.2 14.4 4 13 4 11.2 5.4 8 7.2 8m0-1.6c-2.7 0-4.8 2.1-4.8 4.8S4.5 16 7.2 16s4.8-2.1 4.8-4.8-2.1-4.8-4.8-4.8zM21.6 18.4v2.4H11.2v10.4H1.6v-9.6c0-1.8 1.4-3.2 3.2-3.2h16.8m1.6-1.6H4.8c-2.7 0-4.8 2.1-4.8 4.8v11.2h12.8V22.4h10.4v-5.6z"/><path class="st0" d="M37.6 20.8H26.4v1.6h11.2v-1.6zM43.2 17.6H26.4v1.6h16.8v-1.6zM37.6 14.4H26.4V16h11.2v-1.6zM40 11.2H20.8v1.6H40v-1.6zM43.2 8H20.8v1.6h22.4V8zM28.8 4.8h-1.6v1.6h1.6V4.8zM25.6 4.8H24v1.6h1.6V4.8zM22.4 4.8h-1.6v1.6h1.6V4.8z"/><path class="st0" d="M44.8 0H19.2C17.4 0 16 1.4 16 3.2v12h1.6v-12c0-.9.7-1.6 1.6-1.6h25.6c.9 0 1.6.7 1.6 1.6V24c0 .9-.7 1.6-1.6 1.6H19.2c-.9 0-1.6-.7-1.6-1.6H16c0 1.8 1.4 3.2 3.2 3.2h25.6c1.8 0 3.2-1.4 3.2-3.2V3.2C48 1.4 46.6 0 44.8 0z"/></g></switch></svg>