<svg id="Слой_1" xmlns="http://www.w3.org/2000/svg" viewBox="0 0 48 48"><style>.st0{fill:#2d9cdb}.st1{fill:#f2c94c}</style><switch><g id="support"><path class="st1" d="M24 38c.7 0 1.2.5 1.2 1.2s-.5 1.2-1.2 1.2-1.2-.5-1.2-1.2.5-1.2 1.2-1.2m0-1.6c-1.5 0-2.8 1.3-2.8 2.8S22.5 42 24 42s2.8-1.3 2.8-2.8-1.3-2.8-2.8-2.8z"/><path class="st0" d="M19.2 13.2h4v1.6h-4zM24.8 13.2h4v1.6h-4z"/><path class="st0" d="M42.4 42.8v-8.4c0-6-4.8-10.8-10.8-10.8h-2v-1.5a7 7 0 0 0 1.3-1.7H32c1.3 0 2.4-1.1 2.4-2.4v-.9c.9-.3 1.6-1.2 1.6-2.3v-1.6c0-.7-.3-1.3-.8-1.8a11.2 11.2 0 0 0-22.4 0c-.5.4-.8 1.1-.8 1.8v1.6c0 1.3 1.1 2.4 2.4 2.4H16c.2 1.9 1.1 3.6 2.4 4.9v1.5h-2c-6 0-10.8 4.8-10.8 10.8v8.4H2.4v1.6h8.8v-1.6h-4v-8.4c0-5.1 4.1-9.2 9.2-9.2h1.2c1.5 1.9 3.8 3.2 6.4 3.2s4.9-1.3 6.4-3.2h1.2c5.1 0 9.2 4.1 9.2 9.2v8.4h-4v1.6h8.8v-1.6h-3.2zM32.8 18c0 .4-.4.8-.8.8h-.4c.2-.5.3-1 .3-1.6h.8v.8zm1.6-4.8v1.6c0 .4-.4.8-.8.8H32v-3.2h1.6c.4 0 .8.4.8.8zM16 15.6h-1.6c-.4 0-.8-.4-.8-.8v-1.6c0-.4.4-.8.8-.8H16v3.2zm-1.6-4.8C14.8 5.9 19 2 24 2s9.2 3.9 9.6 8.8H32a8.03 8.03 0 0 0-16 0h-1.6zM29.8 9c-.3.1-.7.1-1 .1-1.4 0-2.7-.5-3.7-1.4l-1.5-1.3-1 1.7a5.5 5.5 0 0 1-4.8 2.7h-.2c.4-3.1 3.1-5.6 6.3-5.6 2.7 0 5 1.6 5.9 3.8zM24 26.8c-1.6 0-3.1-.6-4.2-1.6l.2-1.9a7.74 7.74 0 0 0 8 0l.2 1.9c-1.1 1-2.6 1.6-4.2 1.6zm0-4c-3.5 0-6.4-2.9-6.4-6.4v-4h.3c2.6 0 4.9-1.4 6.2-3.5 1.3 1.1 2.9 1.8 4.8 1.8.5 0 1-.1 1.5-.2.1.3.1.7.1 1v4.8c0 .8-.2 1.7-.5 2.4h-6.7v1.6H29c-1.2 1.6-3 2.5-5 2.5z"/><g><path class="st1" d="M34.4 32.4c.9 0 1.6.7 1.6 1.6v12H12V34c0-.9.7-1.6 1.6-1.6h20.8m0-1.6H13.6c-1.8 0-3.2 1.4-3.2 3.2v13.6h27.2V34c0-1.8-1.4-3.2-3.2-3.2z"/></g></g></switch></svg>