<svg id="Слой_1" xmlns="http://www.w3.org/2000/svg" viewBox="0 0 48 48"><style>.st1{fill:#f2c94c}</style><switch><g id="connection"><path d="M45.1 23.1l-4.7-6.4c-.6-.8-1.6-1.2-2.5-1.2-.3 0-.6 0-.9.1l-4.7 1.9H32c-.7 0-1.5-1-3.3-2-.6-.3-1.2-.4-1.8-.4-1.1 0-2.1.5-2.9 1.3-.8-.8-1.8-1.3-2.9-1.3-.6 0-1.2.1-1.8.4-1.8.9-2.6 2-3.3 2h-.3L11 15.6c-.3-.1-.6-.1-.9-.1-1 0-1.9.4-2.5 1.2l-4.7 6.4c-1.1 1.3-1 3.3.3 4.5l7.6 5.8-.8.7c-1.2 1-1.3 2.8-.3 3.9.3.4.7.6 1.1.8-.6 1-.6 2.3.2 3.3.6.7 1.3 1 2.1 1 .4 0 .7-.1 1.1-.2.1.4.3.9.6 1.3.6.7 1.3 1 2.1 1 .6 0 1.3-.2 1.8-.7.1.4.3.8.6 1.1.6.7 1.3 1 2.1 1 .6 0 1.3-.2 1.8-.7l1.2-1c.4-.3.7-.8.8-1.3l1.3 1.1c.5.4 1.1.7 1.8.7h.3c.7-.1 1.4-.4 1.9-1 .3-.3.5-.7.6-1.1l1.1.9c1.2 1 3 .8 4-.4.3-.4.5-.8.6-1.3.4.2.9.2 1.3.2.7-.1 1.4-.4 1.9-1s.7-1.3.7-2.1c0-.5-.2-.9-.4-1.3.4-.2.8-.4 1.1-.8 1-1.2.9-3-.3-3.9l-2-1.8 5.6-4.3c1.3-1.1 1.5-3 .4-4.4zM11 35.3l3.1-2.6c.3-.2.6-.3.8-.3.4 0 .7.2.9.4.2.2.3.6.3.9s-.2.6-.4.8l-1.5 1.3-1.5 1.3c-.3.2-.6.3-.8.3-.4 0-.7-.2-.9-.4-.6-.5-.5-1.3 0-1.7zm2.1 6.2c-.4 0-.7-.2-.9-.4-.4-.5-.4-1.3.1-1.7l2.8-2.3 1.5-1.3 1.2-1c.3-.2.6-.3.8-.3.4 0 .7.2.9.4.2.2.3.6.3.9 0 .3-.2.6-.4.8l-5.5 4.6c-.3.3-.6.3-.8.3zm3.8 2.1c-.4 0-.7-.2-.9-.4-.4-.5-.4-1.3.1-1.7l1.5-1.3 1.5-1.3c.3-.2.6-.3.8-.3.4 0 .7.2.9.4.4.5.4 1.2-.1 1.7l-1.1.9-1.9 1.6c-.3.3-.6.4-.8.4zm6.6.1l-1.2 1c-.3.2-.6.3-.8.3-.4 0-.7-.2-.9-.4-.2-.2-.3-.6-.3-.9 0-.3.2-.6.4-.8l1.1-.9.1-.1c.3-.2.6-.3.8-.3.4 0 .7.2.9.4.2.2.3.6.3.9 0 .3-.2.5-.4.8zm16.7-7.1c-.4.5-1.2.6-1.7.2l-6.2-5.2-1 1.2 6.5 5.4.9.8c.2.2.4.5.4.8 0 .3-.1.6-.3.9-.2.3-.5.4-.8.4-.3 0-.6-.1-.9-.3l-.9-.8-6.7-5.6-1 1.2 6.4 5.4c.2.2.4.5.4.8 0 .3-.1.6-.3.9-.4.5-1.2.6-1.7.2l-1.5-1.3-4.7-3.9-1 1.2 3.2 2.7c.5.4.5 1.2.1 1.7-.2.3-.5.4-.8.4-.3 0-.6-.1-.9-.3l-2.5-2c-.1-.2-.2-.3-.3-.5-.5-.6-1.3-1-2.1-1 0-.7-.2-1.4-.6-2-.3-.4-.7-.6-1.1-.8.6-1 .6-2.3-.2-3.3-.6-.7-1.3-1-2.1-1-.4 0-.7.1-1.1.2-.1-.4-.3-.9-.6-1.3-.6-.7-1.3-1-2.1-1-.6 0-1.3.2-1.8.7l-1 .8-7.8-5.9c-.6-.6-.6-1.6-.1-2.3L9 17.7c.3-.4.8-.6 1.3-.6h.4l4.7 1.8c.3.1.5.1.8.1.9 0 1.6-.5 2.3-1 .5-.3 1-.7 1.7-1.1.3-.2.7-.2 1-.2.7 0 1.3.3 1.8.8l-3.3 2.9c-1.5 1.3-1.7 3.6-.4 5.1 1.3 1.5 3.6 1.7 5.1.4l3.2-2.7 12.7 11.5c.3.6.4 1.4-.1 1.9zm3.5-10.2L38 30.8l-10-9c-.2-.2-.4-.3-.6-.3s-.5.1-.6.3l-3.6 3c-.8.7-2.1.6-2.8-.2-.7-.8-.6-2.1.3-2.8l3.5-3.1 1-1.1c.4-.5 1.1-.8 1.8-.8.4 0 .7.1 1 .2.7.4 1.2.7 1.7 1.1.7.5 1.4 1 2.3 1 .3 0 .5 0 .8-.2l4.6-1.8h.4c.5 0 1 .2 1.3.6l4.7 6.3c.6.8.5 1.8-.1 2.4z" fill="#2d9cdb"/><path class="st1" d="M14.9 4.5l-1.5.7 2.7 5.8c.5-.2 1-.3 1.5-.5l-2.7-6zM24.9 1.4h-1.6v8.2h1.6V1.4zM33.3 4.5l-2.8 6.1c.5.1 1 .3 1.5.5l2.8-5.9-1.5-.7z"/></g></switch></svg>