<?xml version="1.0" encoding="iso-8859-1"?>
<!-- Generator: Adobe Illustrator 22.0.1, SVG Export Plug-In . SVG Version: 6.00 Build 0)  -->
<svg version="1.1" id="Layer_1" xmlns="http://www.w3.org/2000/svg" xmlns:xlink="http://www.w3.org/1999/xlink" x="0px" y="0px"
	 viewBox="0 0 100.25 100.25" style="enable-background:new 0 0 100.25 100.25;" xml:space="preserve">
<g>
	<path d="M78.528,60.893c-0.739-0.377-1.642-0.086-2.02,0.65L64.696,84.582c-0.378,0.737-0.087,1.642,0.65,2.02
		c0.22,0.112,0.453,0.166,0.684,0.166c0.545,0,1.07-0.298,1.336-0.816l11.812-23.039C79.557,62.175,79.266,61.271,78.528,60.893z"/>
	<path d="M98.848,72.445L86.335,59.963c-0.588-0.585-1.537-0.583-2.121,0.002c-0.586,0.587-0.584,1.537,0.002,2.122l11.448,11.42
		l-11.448,11.42c-0.586,0.585-0.588,1.535-0.002,2.122c0.293,0.293,0.677,0.44,1.062,0.44c0.383,0,0.767-0.146,1.06-0.438
		l12.513-12.482c0.282-0.281,0.44-0.664,0.44-1.062S99.13,72.726,98.848,72.445z"/>
	<path d="M58.571,59.966c-0.585-0.586-1.534-0.587-2.121-0.002L43.94,72.446c-0.282,0.282-0.44,0.664-0.44,1.062
		s0.158,0.78,0.44,1.062l12.51,12.482c0.293,0.292,0.676,0.438,1.06,0.438c0.385,0,0.769-0.147,1.062-0.44
		c0.586-0.586,0.584-1.536-0.002-2.122l-11.445-11.42l11.445-11.42C59.155,61.502,59.157,60.552,58.571,59.966z"/>
	<path d="M35.5,77.893H5.796c0.776-14.224,12.521-25.558,26.848-25.558c4.074,0,7.987,0.894,11.631,2.656
		c0.747,0.361,1.644,0.048,2.004-0.697c0.36-0.746,0.049-1.643-0.697-2.003c-4.055-1.961-8.407-2.956-12.938-2.956
		c-16.48,0-29.889,13.484-29.889,30.058c0,0.829,0.672,1.5,1.5,1.5H35.5c0.828,0,1.5-0.671,1.5-1.5S36.328,77.893,35.5,77.893z"/>
	<path d="M33.241,45.912c9.657,0,17.514-7.855,17.514-17.51c0-9.654-7.856-17.509-17.514-17.509
		c-9.652,0-17.506,7.854-17.506,17.509C15.735,38.057,23.589,45.912,33.241,45.912z M33.241,13.893
		c8.003,0,14.514,6.509,14.514,14.509c0,8.001-6.511,14.51-14.514,14.51c-7.999,0-14.506-6.509-14.506-14.51
		C18.735,20.402,25.242,13.893,33.241,13.893z"/>
</g>
</svg>
