<?xml version="1.0" encoding="iso-8859-1"?>
<!-- Generator: Adobe Illustrator 21.0.0, SVG Export Plug-In . SVG Version: 6.00 Build 0)  -->
<svg version="1.1" id="Layer_1" xmlns="http://www.w3.org/2000/svg" xmlns:xlink="http://www.w3.org/1999/xlink" x="0px" y="0px"
	 viewBox="0 0 100.353 100.353" style="enable-background:new 0 0 100.353 100.353;" xml:space="preserve">
<path d="M84.918,61.721V39.629l9.882-6.588L50.176,3.292L5.553,33.041l8.252,5.502v23.206L50.447,85.24l19.188-13.092v8.783
	l-7.914,15.827H80.55l-7.914-15.827v-10.83L84.918,61.721z M66.577,93.758l4.559-9.119l4.56,9.119H66.577z M81.918,60.136
	l-9.282,6.333V47.817l9.282-6.188V60.136z M50.176,6.898l39.215,26.144l-18.256,12.17L51.008,31.793l-1.664,2.496l19.088,12.725
	l-18.255,12.17L10.961,33.041L50.176,6.898z M50.396,81.643l-33.59-21.535V40.543l33.37,22.247l19.459-12.973v18.698L50.396,81.643z
	"/>
<g id="Layer_1_1_">
</g>
</svg>
