<?xml version="1.0" encoding="iso-8859-1"?>
<!-- Generator: Adobe Illustrator 21.0.2, SVG Export Plug-In . SVG Version: 6.00 Build 0)  -->
<svg version="1.1" id="Layer_1" xmlns="http://www.w3.org/2000/svg" xmlns:xlink="http://www.w3.org/1999/xlink" x="0px" y="0px"
	 viewBox="0 0 100.75 100.749" style="enable-background:new 0 0 100.75 100.749;" xml:space="preserve">
<path d="M96.767,59.964c-6.635-4.358-11.286-11.017-13.826-19.792c-3.732-12.902-11.258-19.93-16.914-23.554
	c-6.155-3.944-11.405-4.81-11.626-4.844c-0.473-0.075-0.956,0.081-1.295,0.421L41.184,24.116c-0.058-0.011-0.098-0.018-0.106-0.019
	l-0.023,0.148l-14.02,14.02c-0.008,0.008-0.016,0.015-0.023,0.023L2.577,62.724c-0.586,0.586-0.586,1.535,0,2.121
	s1.535,0.586,2.121,0l23.874-23.874c3.584,0.85,19.505,5.723,25.406,26.117c2.737,9.464,7.793,16.678,15.024,21.443
	c0.252,0.166,0.539,0.247,0.824,0.247c0.387,0,0.771-0.149,1.061-0.438l26.116-26.061c0.319-0.318,0.479-0.765,0.433-1.214
	S97.145,60.212,96.767,59.964z M83.674,49.898L72.932,60.639c-1.336-2.476-2.456-5.178-3.314-8.144
	c-0.608-2.101-1.323-4.038-2.112-5.845l10.75-10.75c0.668,1.585,1.277,3.28,1.805,5.106C80.995,44.237,82.205,47.2,83.674,49.898z
	 M76.904,33.01L66.132,43.781c-2.442-4.643-5.414-8.221-8.451-10.964l10.736-10.736C71.449,24.71,74.458,28.258,76.904,33.01z
	 M54.661,14.883c1.769,0.399,6.404,1.721,11.387,5.326l-10.68,10.679c-4.127-3.175-8.139-4.931-10.858-5.855L54.661,14.883z
	 M31.017,38.526l11.108-11.108c2.21,0.61,6.555,2.144,11.123,5.59l-11.17,11.169c-0.732-0.545-1.447-1.037-2.133-1.477
	C36.411,40.436,33.174,39.186,31.017,38.526z M44.424,46.074l11.151-11.151c3.007,2.704,5.962,6.311,8.329,11.086L53.022,56.891
	C50.456,52.202,47.391,48.676,44.424,46.074z M54.444,59.711l10.774-10.774c0.557,1.38,1.069,2.837,1.519,4.392
	c1.009,3.489,2.336,6.67,3.968,9.537L59.828,73.743c-1.182-2.299-2.186-4.782-2.97-7.488C56.172,63.878,55.354,61.704,54.444,59.711
	z M69.65,85.337c-3.298-2.362-6.052-5.348-8.283-8.891l10.972-10.971c2.342,3.424,5.189,6.322,8.523,8.674L69.65,85.337z
	 M83.029,71.987c-3.371-2.296-6.21-5.205-8.511-8.692l10.743-10.743c2.286,3.488,5.071,6.456,8.352,8.872L83.029,71.987z"/>
<path style="fill:none;stroke:#231F20;stroke-width:3;stroke-linejoin:round;stroke-miterlimit:10;" d="M62.247,95.103"/>
</svg>
